<?xml version="1.0" encoding="UTF-8"?>
<svg xmlns="http://www.w3.org/2000/svg" xmlns:xlink="http://www.w3.org/1999/xlink" width="82px" height="40px" viewBox="0 0 81 40" version="1.1">
<g id="surface1">
<path style=" stroke:none;fill-rule:nonzero;fill:rgb(0%,0%,0%);fill-opacity:1;" d="M 9.652344 1.113281 C 9.746094 1.195312 9.839844 1.277344 9.929688 1.363281 C 9.957031 1.390625 9.984375 1.414062 10.011719 1.441406 C 10.714844 2.101562 11.417969 2.953125 11.59375 3.9375 C 11.546875 3.949219 11.546875 3.949219 11.5 3.957031 C 10.558594 4.179688 9.667969 4.488281 8.832031 4.988281 C 8.734375 5.039062 8.734375 5.039062 8.628906 5.039062 C 8.621094 4.988281 8.613281 4.941406 8.605469 4.890625 C 8.484375 4.179688 8.265625 3.613281 7.695312 3.148438 C 7.542969 3.046875 7.390625 2.964844 7.226562 2.886719 C 7.179688 2.863281 7.132812 2.84375 7.085938 2.820312 C 6.347656 2.484375 5.578125 2.425781 4.78125 2.363281 C 4.777344 2.414062 4.777344 2.414062 4.773438 2.472656 C 4.753906 2.742188 4.734375 3.011719 4.707031 3.28125 C 4.617188 4.101562 4.613281 4.917969 4.609375 5.742188 C 4.609375 5.9375 4.609375 6.136719 4.609375 6.332031 C 4.605469 6.910156 4.605469 7.492188 4.605469 8.070312 C 4.601562 8.523438 4.601562 8.976562 4.597656 9.429688 C 4.597656 9.660156 4.597656 9.890625 4.597656 10.125 C 4.597656 10.300781 4.597656 10.480469 4.597656 10.660156 C 4.597656 10.722656 4.597656 10.785156 4.597656 10.847656 C 4.585938 11.972656 4.210938 12.875 3.535156 13.753906 C 3.5625 13.742188 3.589844 13.730469 3.617188 13.71875 C 4.847656 13.175781 4.847656 13.175781 5.457031 13.125 C 5.5 13.121094 5.542969 13.117188 5.585938 13.109375 C 6.300781 13.074219 7.019531 13.289062 7.710938 13.449219 C 8.71875 13.683594 9.53125 13.636719 10.433594 13.078125 C 10.832031 12.816406 11.179688 12.503906 11.527344 12.179688 C 11.667969 12.054688 11.8125 11.929688 11.957031 11.8125 C 12.242188 12.042969 12.242188 12.042969 12.53125 12.285156 C 11.117188 15.394531 11.117188 15.394531 9.554688 16.054688 C 9.011719 16.246094 8.453125 16.335938 7.875 16.335938 C 7.832031 16.335938 7.792969 16.335938 7.75 16.335938 C 7.238281 16.332031 6.730469 16.28125 6.222656 16.234375 C 4.425781 16.074219 2.710938 16.039062 0.933594 16.414062 C 0.832031 16.429688 0.832031 16.429688 0.675781 16.429688 C 0.585938 16.300781 0.507812 16.171875 0.433594 16.035156 C 0.410156 16 0.390625 15.960938 0.367188 15.921875 C 0.3125 15.828125 0.261719 15.738281 0.207031 15.644531 C 0.246094 15.605469 0.285156 15.566406 0.324219 15.527344 C 1.199219 14.632812 1.515625 13.597656 1.515625 12.367188 C 1.515625 12.296875 1.515625 12.226562 1.515625 12.15625 C 1.515625 11.960938 1.515625 11.769531 1.515625 11.578125 C 1.515625 11.457031 1.515625 11.335938 1.515625 11.214844 C 1.515625 10.796875 1.515625 10.375 1.515625 9.953125 C 1.515625 9.5625 1.519531 9.171875 1.519531 8.78125 C 1.519531 8.445312 1.519531 8.109375 1.519531 7.773438 C 1.519531 7.570312 1.519531 7.371094 1.519531 7.167969 C 1.519531 6.980469 1.519531 6.792969 1.519531 6.601562 C 1.519531 6.5 1.519531 6.398438 1.519531 6.296875 C 1.519531 5.550781 1.398438 4.914062 0.890625 4.351562 C 0.78125 4.246094 0.78125 4.246094 0.636719 4.171875 C 0.578125 4.132812 0.578125 4.132812 0.519531 4.09375 C 0.5 3.917969 0.5 3.917969 0.519531 3.726562 C 0.519531 3.683594 0.519531 3.640625 0.519531 3.59375 C 0.570312 3.464844 0.570312 3.464844 0.757812 3.378906 C 0.84375 3.355469 0.929688 3.328125 1.015625 3.304688 C 2.113281 2.949219 3.113281 2.367188 4.105469 1.785156 C 7.796875 -0.371094 7.796875 -0.371094 9.652344 1.113281 Z M 9.652344 1.113281 "/>
<path style=" stroke:none;fill-rule:nonzero;fill:rgb(0%,0%,0%);fill-opacity:1;" d="M 18.144531 19.949219 C 18.3125 20.105469 18.390625 20.285156 18.484375 20.488281 C 19.160156 21.890625 20.285156 22.839844 21.628906 23.570312 C 21.613281 23.742188 21.59375 23.8125 21.46875 23.933594 C 21.421875 23.964844 21.375 23.996094 21.328125 24.03125 C 21.273438 24.066406 21.222656 24.101562 21.171875 24.140625 C 21.113281 24.175781 21.058594 24.214844 21.003906 24.253906 C 20.953125 24.289062 20.898438 24.324219 20.84375 24.363281 C 20.625 24.511719 20.40625 24.660156 20.1875 24.8125 C 19.832031 25.054688 19.480469 25.304688 19.132812 25.5625 C 18.113281 25.046875 17.511719 24.082031 17.152344 23.015625 C 17.082031 22.800781 17.015625 22.582031 16.949219 22.363281 C 16.796875 22.363281 16.738281 22.453125 16.632812 22.558594 C 15.90625 23.292969 15.546875 24.054688 15.527344 25.097656 C 15.527344 25.179688 15.527344 25.179688 15.523438 25.265625 C 15.523438 25.441406 15.519531 25.617188 15.515625 25.792969 C 15.511719 25.914062 15.511719 26.035156 15.507812 26.152344 C 15.503906 26.445312 15.496094 26.742188 15.492188 27.035156 C 15.550781 27.027344 15.609375 27.023438 15.667969 27.019531 C 16.210938 26.96875 16.753906 26.917969 17.296875 26.871094 C 17.574219 26.84375 17.855469 26.820312 18.132812 26.792969 C 18.402344 26.769531 18.671875 26.746094 18.941406 26.71875 C 19.046875 26.710938 19.148438 26.703125 19.25 26.691406 C 19.394531 26.679688 19.539062 26.664062 19.683594 26.652344 C 19.726562 26.648438 19.765625 26.644531 19.808594 26.640625 C 20.105469 26.613281 20.394531 26.609375 20.691406 26.613281 C 20.667969 26.660156 20.644531 26.703125 20.621094 26.75 C 20.523438 26.929688 20.429688 27.105469 20.339844 27.285156 C 20.277344 27.394531 20.21875 27.507812 20.160156 27.617188 C 19.832031 28.234375 19.53125 28.863281 19.230469 29.492188 C 19.214844 29.527344 19.199219 29.5625 19.179688 29.597656 C 19.136719 29.695312 19.089844 29.789062 19.046875 29.886719 C 18.976562 30.027344 18.976562 30.027344 18.925781 30.078125 C 18.804688 30.082031 18.679688 30.082031 18.558594 30.078125 C 18.550781 30.042969 18.539062 30.011719 18.527344 29.976562 C 18.394531 29.597656 18.242188 29.378906 17.894531 29.1875 C 17.390625 28.96875 16.773438 29.015625 16.238281 29 C 16.136719 28.996094 16.136719 28.996094 16.035156 28.992188 C 15.871094 28.988281 15.707031 28.980469 15.546875 28.976562 C 15.542969 29.054688 15.542969 29.054688 15.542969 29.136719 C 15.539062 29.636719 15.539062 30.136719 15.53125 30.636719 C 15.53125 30.894531 15.527344 31.148438 15.527344 31.40625 C 15.511719 33.792969 15.386719 36.207031 13.777344 38.109375 C 13.753906 38.136719 13.734375 38.164062 13.710938 38.191406 C 13.144531 38.855469 12.488281 39.382812 11.75 39.84375 C 11.734375 39.84375 11.714844 39.84375 11.699219 39.84375 C 11.644531 39.4375 11.703125 39.15625 11.894531 38.804688 C 12.449219 37.769531 12.484375 36.523438 12.488281 35.367188 C 12.488281 35.296875 12.488281 35.222656 12.488281 35.152344 C 12.492188 34.960938 12.492188 34.765625 12.492188 34.574219 C 12.496094 34.371094 12.496094 34.167969 12.496094 33.964844 C 12.5 33.582031 12.503906 33.199219 12.503906 32.816406 C 12.507812 32.378906 12.511719 31.945312 12.511719 31.507812 C 12.519531 30.613281 12.523438 29.714844 12.53125 28.820312 C 12.5 28.820312 12.46875 28.820312 12.4375 28.820312 C 12.292969 28.820312 12.152344 28.820312 12.011719 28.820312 C 11.9375 28.820312 11.9375 28.820312 11.863281 28.820312 C 11.476562 28.820312 11.09375 28.804688 10.710938 28.765625 C 10.71875 28.605469 10.726562 28.445312 10.734375 28.289062 C 10.734375 28.242188 10.738281 28.199219 10.738281 28.152344 C 10.75 27.914062 10.769531 27.6875 10.8125 27.453125 C 11.003906 27.4375 11.191406 27.417969 11.378906 27.402344 C 11.457031 27.394531 11.457031 27.394531 11.539062 27.386719 C 11.871094 27.355469 12.195312 27.34375 12.53125 27.347656 C 12.464844 26.113281 12.351562 25.085938 11.644531 24.042969 C 11.671875 24.027344 11.695312 24.011719 11.722656 23.996094 C 12.285156 23.660156 12.839844 23.316406 13.386719 22.960938 C 13.738281 22.734375 14.09375 22.511719 14.445312 22.285156 C 14.5 22.253906 14.550781 22.222656 14.605469 22.1875 C 14.707031 22.121094 14.8125 22.054688 14.917969 21.988281 C 15.179688 21.824219 15.441406 21.660156 15.699219 21.496094 C 16.019531 21.292969 16.339844 21.09375 16.660156 20.890625 C 16.742188 20.839844 16.742188 20.839844 16.828125 20.785156 C 16.933594 20.71875 17.039062 20.652344 17.140625 20.585938 C 17.476562 20.375 17.8125 20.164062 18.144531 19.949219 Z M 18.144531 19.949219 "/>
<path style=" stroke:none;fill-rule:nonzero;fill:rgb(0%,0%,0%);fill-opacity:1;" d="M 31.246094 5.40625 C 31.925781 5.546875 32.644531 6.074219 33.167969 6.507812 C 33.214844 6.546875 33.261719 6.582031 33.308594 6.621094 C 34.265625 7.449219 34.785156 8.664062 34.921875 9.914062 C 35.042969 11.476562 34.8125 12.988281 33.792969 14.226562 C 33.1875 14.902344 32.511719 15.441406 31.753906 15.933594 C 31.621094 16.019531 31.492188 16.113281 31.367188 16.210938 C 30.933594 16.542969 30.933594 16.542969 30.667969 16.523438 C 30.496094 16.460938 30.359375 16.378906 30.207031 16.273438 C 30.175781 16.253906 30.148438 16.234375 30.121094 16.214844 C 29.511719 15.792969 29.179688 15.355469 28.800781 14.699219 C 28.785156 16.480469 28.769531 18.265625 28.75 20.105469 C 27.859375 20.105469 26.964844 20.105469 26.046875 20.105469 C 26.046875 19.597656 26.046875 19.597656 26.042969 19.082031 C 26.042969 17.964844 26.039062 16.851562 26.035156 15.734375 C 26.03125 15.058594 26.03125 14.382812 26.027344 13.707031 C 26.027344 13.117188 26.027344 12.527344 26.023438 11.9375 C 26.023438 11.625 26.019531 11.3125 26.019531 11 C 26.019531 10.707031 26.019531 10.414062 26.019531 10.121094 C 26.019531 10.011719 26.015625 9.90625 26.015625 9.796875 C 26.015625 9.648438 26.015625 9.503906 26.015625 9.355469 C 26.015625 9.3125 26.015625 9.269531 26.015625 9.226562 C 26.011719 8.925781 25.945312 8.679688 25.839844 8.398438 C 25.8125 8.320312 25.8125 8.320312 25.785156 8.242188 C 25.695312 8.183594 25.695312 8.183594 25.578125 8.136719 C 25.503906 8.097656 25.503906 8.097656 25.425781 8.054688 C 25.28125 7.984375 25.164062 7.949219 25.007812 7.925781 C 25.011719 7.769531 25.015625 7.652344 25.058594 7.507812 C 25.183594 7.40625 25.269531 7.347656 25.410156 7.28125 C 25.445312 7.261719 25.484375 7.242188 25.519531 7.222656 C 25.636719 7.164062 25.757812 7.105469 25.875 7.046875 C 25.957031 7.003906 26.039062 6.964844 26.117188 6.921875 C 26.28125 6.839844 26.441406 6.757812 26.601562 6.675781 C 26.894531 6.527344 27.175781 6.371094 27.460938 6.214844 C 27.550781 6.164062 27.636719 6.117188 27.726562 6.066406 C 27.765625 6.042969 27.808594 6.023438 27.851562 6 C 28.148438 5.832031 28.449219 5.671875 28.75 5.511719 C 28.75 5.894531 28.75 6.273438 28.75 6.667969 C 29.609375 6.398438 30.347656 6.019531 31.089844 5.511719 C 31.140625 5.476562 31.191406 5.441406 31.246094 5.40625 Z M 29.539062 7.53125 C 29.277344 7.589844 29.019531 7.632812 28.75 7.664062 C 28.746094 8.171875 28.742188 8.675781 28.738281 9.183594 C 28.738281 9.417969 28.738281 9.65625 28.734375 9.890625 C 28.730469 10.117188 28.730469 10.34375 28.730469 10.574219 C 28.730469 10.660156 28.730469 10.746094 28.726562 10.832031 C 28.714844 11.828125 28.914062 12.679688 29.617188 13.421875 C 30.175781 13.976562 30.808594 14.238281 31.585938 14.230469 C 31.625 14.234375 31.664062 14.234375 31.707031 14.234375 C 31.890625 14.234375 32.054688 14.222656 32.234375 14.171875 C 32.675781 12.621094 32.738281 10.933594 31.988281 9.464844 C 31.699219 8.96875 31.355469 8.546875 30.957031 8.144531 C 30.910156 8.09375 30.910156 8.09375 30.859375 8.042969 C 30.492188 7.644531 30.492188 7.644531 30.023438 7.445312 C 29.855469 7.457031 29.703125 7.492188 29.539062 7.53125 Z M 29.539062 7.53125 "/>
<path style=" stroke:none;fill-rule:nonzero;fill:rgb(0%,0%,0%);fill-opacity:1;" d="M 35.25 20.15625 C 35.25 22.511719 35.25 24.871094 35.25 27.296875 C 36.179688 26.855469 36.929688 26.382812 37.570312 25.582031 C 37.757812 25.367188 37.757812 25.367188 37.910156 25.316406 C 38.054688 25.3125 38.175781 25.328125 38.316406 25.355469 C 38.378906 25.363281 38.445312 25.371094 38.507812 25.378906 C 39.382812 25.511719 40.210938 25.886719 40.777344 26.597656 C 41.625 27.804688 41.804688 29.257812 41.566406 30.699219 C 41.304688 32.101562 40.757812 33.402344 39.824219 34.488281 C 39.796875 34.523438 39.765625 34.558594 39.738281 34.597656 C 39.488281 34.902344 39.199219 35.140625 38.886719 35.378906 C 38.847656 35.414062 38.804688 35.445312 38.761719 35.480469 C 38.273438 35.84375 37.746094 36.097656 37.167969 36.273438 C 37.128906 36.285156 37.089844 36.296875 37.050781 36.308594 C 36.699219 36.410156 36.699219 36.410156 36.546875 36.324219 C 36.445312 36.203125 36.445312 36.203125 36.335938 36.046875 C 35.472656 34.832031 34.382812 34.054688 32.945312 33.695312 C 32.890625 33.683594 32.890625 33.683594 32.828125 33.667969 C 32.734375 33.644531 32.640625 33.621094 32.546875 33.597656 C 32.546875 33.542969 32.546875 33.492188 32.546875 33.441406 C 32.542969 32.1875 32.539062 30.933594 32.535156 29.679688 C 32.53125 29.070312 32.527344 28.464844 32.527344 27.859375 C 32.527344 27.332031 32.523438 26.800781 32.523438 26.273438 C 32.519531 25.992188 32.519531 25.714844 32.519531 25.433594 C 32.519531 25.171875 32.519531 24.90625 32.515625 24.644531 C 32.515625 24.546875 32.515625 24.449219 32.515625 24.351562 C 32.535156 23.578125 32.535156 23.578125 32.21875 22.894531 C 32 22.71875 31.761719 22.621094 31.503906 22.519531 C 31.5 22.355469 31.5 22.355469 31.558594 22.152344 C 31.703125 22.027344 31.871094 21.949219 32.042969 21.863281 C 32.148438 21.808594 32.25 21.753906 32.355469 21.699219 C 32.410156 21.671875 32.46875 21.640625 32.527344 21.613281 C 32.800781 21.472656 33.070312 21.324219 33.34375 21.175781 C 33.4375 21.125 33.527344 21.074219 33.621094 21.023438 C 34.046875 20.792969 34.472656 20.5625 34.898438 20.324219 C 35.191406 20.15625 35.191406 20.15625 35.25 20.15625 Z M 35.25 28.242188 C 35.246094 28.5625 35.242188 28.882812 35.242188 29.203125 C 35.238281 29.3125 35.238281 29.421875 35.238281 29.53125 C 35.222656 30.648438 35.269531 31.746094 36.082031 32.597656 C 36.882812 33.371094 38.042969 33.460938 39.097656 33.4375 C 39.164062 33.441406 39.164062 33.441406 39.234375 33.441406 C 39.359375 33.441406 39.449219 33.433594 39.5625 33.386719 C 39.683594 33.246094 39.722656 33.089844 39.773438 32.914062 C 39.789062 32.859375 39.804688 32.804688 39.820312 32.75 C 40.082031 31.683594 39.90625 30.699219 39.355469 29.765625 C 39.246094 29.59375 39.125 29.441406 38.992188 29.292969 C 38.945312 29.238281 38.945312 29.238281 38.898438 29.183594 C 38.292969 28.53125 37.429688 28.132812 36.550781 28.070312 C 36.09375 28.054688 35.695312 28.128906 35.25 28.242188 Z M 35.25 28.242188 "/>
<path style=" stroke:none;fill-rule:nonzero;fill:rgb(0%,0%,0%);fill-opacity:1;" d="M 43.253906 25.355469 C 43.667969 25.347656 44.078125 25.339844 44.488281 25.335938 C 44.628906 25.335938 44.765625 25.332031 44.90625 25.332031 C 45.109375 25.328125 45.308594 25.324219 45.507812 25.324219 C 45.574219 25.320312 45.636719 25.320312 45.699219 25.320312 C 45.859375 25.320312 46.007812 25.320312 46.167969 25.355469 C 46.308594 25.507812 46.308594 25.507812 46.375 25.667969 C 46.390625 25.710938 46.410156 25.75 46.425781 25.792969 C 46.4375 25.828125 46.449219 25.867188 46.460938 25.90625 C 46.480469 25.960938 46.480469 25.960938 46.5 26.019531 C 46.644531 26.585938 46.601562 27.144531 46.496094 27.710938 C 46.488281 27.761719 46.480469 27.8125 46.46875 27.863281 C 46.355469 28.476562 46.203125 29.078125 46.054688 29.683594 C 46.011719 29.855469 45.96875 30.027344 45.925781 30.199219 C 45.898438 30.304688 45.875 30.410156 45.847656 30.515625 C 45.675781 31.203125 45.53125 32.007812 45.90625 32.652344 C 46.15625 33.070312 46.605469 33.277344 47.0625 33.394531 C 47.324219 33.449219 47.582031 33.457031 47.851562 33.453125 C 47.898438 33.453125 47.945312 33.453125 47.996094 33.453125 C 48.558594 33.445312 48.972656 33.300781 49.464844 33.035156 C 49.597656 32.964844 49.597656 32.964844 49.753906 32.914062 C 49.753906 30.417969 49.753906 27.925781 49.753906 25.355469 C 50.664062 25.355469 51.574219 25.355469 52.507812 25.355469 C 52.511719 25.574219 52.511719 25.796875 52.511719 26.027344 C 52.511719 26.757812 52.515625 27.488281 52.519531 28.222656 C 52.519531 28.667969 52.523438 29.109375 52.523438 29.554688 C 52.523438 29.941406 52.527344 30.328125 52.527344 30.714844 C 52.527344 30.921875 52.53125 31.125 52.53125 31.328125 C 52.53125 31.523438 52.53125 31.714844 52.53125 31.910156 C 52.535156 32.011719 52.53125 32.117188 52.53125 32.222656 C 52.539062 32.683594 52.589844 33.082031 52.910156 33.433594 C 53.113281 33.5625 53.316406 33.636719 53.550781 33.699219 C 53.539062 33.933594 53.515625 34.042969 53.363281 34.226562 C 53.308594 34.277344 53.25 34.328125 53.191406 34.375 C 53.144531 34.417969 53.144531 34.417969 53.097656 34.457031 C 52.871094 34.664062 52.632812 34.855469 52.394531 35.050781 C 52.230469 35.183594 52.078125 35.324219 51.925781 35.46875 C 51.898438 35.492188 51.871094 35.519531 51.84375 35.542969 C 51.734375 35.644531 51.625 35.75 51.523438 35.859375 C 51.433594 35.953125 51.433594 35.953125 51.261719 36.0625 C 50.804688 36.027344 50.445312 35.691406 50.160156 35.359375 C 49.957031 35.066406 49.871094 34.730469 49.804688 34.382812 C 48.882812 34.550781 48.050781 35.007812 47.238281 35.460938 C 47.203125 35.480469 47.167969 35.5 47.132812 35.523438 C 46.929688 35.636719 46.75 35.765625 46.570312 35.917969 C 46.421875 36.023438 46.355469 36.0625 46.175781 36.058594 C 46.007812 36.023438 45.859375 35.96875 45.699219 35.90625 C 45.621094 35.878906 45.621094 35.878906 45.542969 35.851562 C 44.582031 35.492188 43.867188 34.78125 43.4375 33.847656 C 42.75 32.148438 43.074219 30.3125 43.441406 28.582031 C 43.449219 28.542969 43.457031 28.507812 43.464844 28.46875 C 43.488281 28.367188 43.507812 28.265625 43.53125 28.164062 C 43.710938 27.261719 43.652344 26.414062 43.328125 25.550781 C 43.316406 25.515625 43.300781 25.476562 43.289062 25.441406 C 43.277344 25.410156 43.265625 25.382812 43.253906 25.355469 Z M 43.253906 25.355469 "/>
<path style=" stroke:none;fill-rule:nonzero;fill:rgb(0%,0%,0%);fill-opacity:1;" d="M 36.601562 5.5625 C 37.011719 5.554688 37.421875 5.550781 37.832031 5.546875 C 37.972656 5.546875 38.113281 5.542969 38.253906 5.539062 C 38.453125 5.535156 38.652344 5.535156 38.855469 5.535156 C 38.917969 5.53125 38.980469 5.53125 39.042969 5.527344 C 39.207031 5.527344 39.355469 5.53125 39.511719 5.5625 C 39.652344 5.714844 39.652344 5.714844 39.71875 5.878906 C 39.738281 5.917969 39.753906 5.960938 39.773438 6.003906 C 39.785156 6.039062 39.796875 6.078125 39.808594 6.117188 C 39.824219 6.171875 39.824219 6.171875 39.84375 6.230469 C 39.992188 6.796875 39.949219 7.351562 39.84375 7.921875 C 39.835938 7.972656 39.824219 8.019531 39.816406 8.074219 C 39.699219 8.683594 39.550781 9.289062 39.398438 9.890625 C 39.355469 10.0625 39.3125 10.234375 39.269531 10.40625 C 39.246094 10.511719 39.21875 10.617188 39.191406 10.722656 C 39.023438 11.414062 38.878906 12.21875 39.253906 12.859375 C 39.503906 13.28125 39.949219 13.488281 40.410156 13.605469 C 40.671875 13.65625 40.929688 13.667969 41.195312 13.664062 C 41.242188 13.664062 41.292969 13.664062 41.339844 13.664062 C 41.902344 13.652344 42.316406 13.507812 42.8125 13.246094 C 42.945312 13.175781 42.945312 13.175781 43.097656 13.125 C 43.097656 10.628906 43.097656 8.132812 43.097656 5.5625 C 44.007812 5.5625 44.917969 5.5625 45.855469 5.5625 C 45.855469 5.785156 45.855469 6.007812 45.855469 6.234375 C 45.859375 6.96875 45.859375 7.699219 45.863281 8.433594 C 45.867188 8.875 45.867188 9.320312 45.867188 9.765625 C 45.871094 10.152344 45.871094 10.539062 45.875 10.925781 C 45.875 11.128906 45.875 11.335938 45.875 11.539062 C 45.875 11.734375 45.875 11.925781 45.878906 12.117188 C 45.878906 12.222656 45.878906 12.328125 45.878906 12.429688 C 45.882812 12.894531 45.9375 13.292969 46.253906 13.644531 C 46.460938 13.773438 46.664062 13.847656 46.894531 13.910156 C 46.886719 14.144531 46.863281 14.253906 46.710938 14.433594 C 46.652344 14.488281 46.59375 14.535156 46.539062 14.585938 C 46.492188 14.628906 46.492188 14.628906 46.445312 14.667969 C 46.214844 14.871094 45.976562 15.066406 45.738281 15.261719 C 45.578125 15.394531 45.421875 15.535156 45.269531 15.679688 C 45.242188 15.703125 45.21875 15.726562 45.191406 15.753906 C 45.078125 15.855469 44.96875 15.957031 44.867188 16.070312 C 44.78125 16.160156 44.78125 16.160156 44.605469 16.273438 C 44.152344 16.238281 43.792969 15.902344 43.507812 15.566406 C 43.300781 15.277344 43.214844 14.941406 43.152344 14.59375 C 42.230469 14.757812 41.394531 15.21875 40.585938 15.671875 C 40.550781 15.691406 40.515625 15.710938 40.480469 15.730469 C 40.273438 15.847656 40.097656 15.976562 39.914062 16.128906 C 39.769531 16.234375 39.703125 16.273438 39.519531 16.269531 C 39.355469 16.230469 39.203125 16.179688 39.042969 16.117188 C 38.96875 16.089844 38.96875 16.089844 38.890625 16.0625 C 37.925781 15.699219 37.214844 14.988281 36.78125 14.054688 C 36.097656 12.355469 36.417969 10.523438 36.785156 8.792969 C 36.792969 8.753906 36.800781 8.71875 36.808594 8.679688 C 36.832031 8.578125 36.855469 8.476562 36.875 8.375 C 37.054688 7.46875 37 6.625 36.675781 5.761719 C 36.660156 5.726562 36.648438 5.6875 36.632812 5.648438 C 36.621094 5.621094 36.613281 5.59375 36.601562 5.5625 Z M 36.601562 5.5625 "/>
<path style=" stroke:none;fill-rule:nonzero;fill:rgb(0%,0%,0%);fill-opacity:1;" d="M 13.671875 5.5625 C 14.085938 5.554688 14.496094 5.550781 14.90625 5.546875 C 15.046875 5.546875 15.183594 5.542969 15.324219 5.539062 C 15.527344 5.535156 15.726562 5.535156 15.925781 5.535156 C 15.988281 5.53125 16.054688 5.53125 16.117188 5.527344 C 16.277344 5.527344 16.425781 5.53125 16.585938 5.5625 C 16.726562 5.714844 16.726562 5.714844 16.792969 5.878906 C 16.808594 5.917969 16.828125 5.960938 16.84375 6.003906 C 16.855469 6.039062 16.867188 6.078125 16.878906 6.117188 C 16.898438 6.171875 16.898438 6.171875 16.917969 6.230469 C 17.0625 6.796875 17.019531 7.351562 16.914062 7.921875 C 16.90625 7.972656 16.898438 8.019531 16.886719 8.074219 C 16.773438 8.683594 16.621094 9.289062 16.472656 9.890625 C 16.429688 10.0625 16.386719 10.234375 16.34375 10.40625 C 16.316406 10.511719 16.289062 10.617188 16.265625 10.722656 C 16.09375 11.414062 15.949219 12.21875 16.324219 12.859375 C 16.574219 13.28125 17.023438 13.488281 17.480469 13.605469 C 17.742188 13.65625 18 13.667969 18.269531 13.664062 C 18.316406 13.664062 18.363281 13.664062 18.414062 13.664062 C 18.976562 13.652344 19.390625 13.507812 19.882812 13.246094 C 20.015625 13.175781 20.015625 13.175781 20.171875 13.125 C 20.171875 10.628906 20.171875 8.132812 20.171875 5.5625 C 21.082031 5.5625 21.992188 5.5625 22.925781 5.5625 C 22.929688 5.785156 22.929688 6.007812 22.929688 6.234375 C 22.929688 6.96875 22.933594 7.699219 22.9375 8.433594 C 22.9375 8.875 22.941406 9.320312 22.941406 9.765625 C 22.941406 10.152344 22.945312 10.539062 22.945312 10.925781 C 22.945312 11.128906 22.949219 11.335938 22.949219 11.539062 C 22.949219 11.734375 22.949219 11.925781 22.949219 12.117188 C 22.949219 12.222656 22.949219 12.328125 22.949219 12.429688 C 22.957031 12.894531 23.007812 13.292969 23.328125 13.644531 C 23.53125 13.773438 23.734375 13.847656 23.96875 13.910156 C 23.957031 14.144531 23.933594 14.253906 23.78125 14.433594 C 23.726562 14.488281 23.667969 14.535156 23.609375 14.585938 C 23.5625 14.628906 23.5625 14.628906 23.515625 14.667969 C 23.285156 14.871094 23.050781 15.066406 22.8125 15.261719 C 22.648438 15.394531 22.496094 15.535156 22.34375 15.679688 C 22.316406 15.703125 22.289062 15.726562 22.261719 15.753906 C 22.152344 15.855469 22.042969 15.957031 21.941406 16.070312 C 21.851562 16.160156 21.851562 16.160156 21.679688 16.273438 C 21.222656 16.238281 20.863281 15.902344 20.578125 15.566406 C 20.375 15.277344 20.289062 14.941406 20.222656 14.59375 C 19.300781 14.757812 18.46875 15.21875 17.65625 15.671875 C 17.621094 15.691406 17.585938 15.710938 17.550781 15.730469 C 17.347656 15.847656 17.167969 15.976562 16.988281 16.128906 C 16.839844 16.234375 16.773438 16.273438 16.59375 16.269531 C 16.425781 16.230469 16.273438 16.179688 16.117188 16.117188 C 16.039062 16.089844 16.039062 16.089844 15.960938 16.0625 C 15 15.699219 14.285156 14.988281 13.855469 14.054688 C 13.167969 12.355469 13.492188 10.523438 13.859375 8.792969 C 13.867188 8.753906 13.875 8.71875 13.882812 8.679688 C 13.90625 8.578125 13.925781 8.476562 13.949219 8.375 C 14.128906 7.46875 14.070312 6.625 13.746094 5.761719 C 13.734375 5.726562 13.71875 5.6875 13.707031 5.648438 C 13.695312 5.621094 13.683594 5.59375 13.671875 5.5625 Z M 13.671875 5.5625 "/>
<path style=" stroke:none;fill-rule:nonzero;fill:rgb(0%,0%,0%);fill-opacity:1;" d="M 73.304688 5.460938 C 73.84375 5.628906 74.28125 5.871094 74.605469 6.351562 C 74.683594 6.507812 74.75 6.664062 74.8125 6.824219 C 75.863281 6.566406 76.953125 6.265625 77.816406 5.582031 C 77.945312 5.492188 78.007812 5.457031 78.167969 5.460938 C 78.324219 5.5 78.460938 5.550781 78.609375 5.617188 C 78.667969 5.644531 78.726562 5.667969 78.789062 5.695312 C 79.675781 6.117188 80.28125 6.734375 80.636719 7.664062 C 81.5625 10.265625 80.796875 13.550781 80.324219 16.167969 C 79.15625 16.167969 77.992188 16.167969 76.789062 16.167969 C 76.960938 15.734375 77.132812 15.300781 77.308594 14.855469 C 77.402344 14.609375 77.492188 14.367188 77.578125 14.121094 C 77.609375 14.03125 77.609375 14.03125 77.644531 13.9375 C 78.496094 11.597656 78.496094 11.597656 78.296875 9.1875 C 78.230469 9.070312 78.164062 8.957031 78.089844 8.847656 C 78.035156 8.765625 78.035156 8.765625 78.035156 8.660156 C 78.007812 8.648438 77.980469 8.636719 77.953125 8.621094 C 77.828125 8.554688 77.828125 8.554688 77.6875 8.453125 C 77.109375 8.089844 76.253906 8.03125 75.589844 8.15625 C 75.394531 8.203125 75.207031 8.269531 75.019531 8.347656 C 74.933594 8.382812 74.851562 8.414062 74.761719 8.453125 C 74.761719 10.996094 74.761719 13.542969 74.761719 16.167969 C 73.867188 16.167969 72.976562 16.167969 72.058594 16.167969 C 72.054688 15.835938 72.054688 15.835938 72.054688 15.5 C 72.054688 14.773438 72.050781 14.046875 72.046875 13.316406 C 72.042969 12.875 72.042969 12.4375 72.039062 11.996094 C 72.039062 11.609375 72.035156 11.226562 72.035156 10.839844 C 72.03125 10.636719 72.03125 10.433594 72.03125 10.230469 C 72.03125 10.039062 72.03125 9.847656 72.027344 9.652344 C 72.027344 9.550781 72.027344 9.449219 72.027344 9.34375 C 72.023438 8.917969 71.984375 8.5625 71.757812 8.195312 C 71.617188 8.0625 71.496094 8.003906 71.316406 7.9375 C 71.261719 7.914062 71.203125 7.890625 71.148438 7.871094 C 71.105469 7.855469 71.0625 7.839844 71.019531 7.820312 C 71.023438 7.582031 71.046875 7.453125 71.21875 7.28125 C 71.28125 7.222656 71.347656 7.167969 71.410156 7.113281 C 71.445312 7.082031 71.476562 7.054688 71.511719 7.023438 C 71.605469 6.9375 71.703125 6.855469 71.796875 6.773438 C 71.835938 6.738281 71.875 6.703125 71.914062 6.667969 C 72.011719 6.578125 72.113281 6.492188 72.214844 6.402344 C 72.273438 6.355469 72.328125 6.304688 72.386719 6.253906 C 72.542969 6.121094 72.695312 5.988281 72.851562 5.851562 C 73 5.722656 73.152344 5.589844 73.304688 5.460938 Z M 73.304688 5.460938 "/>
<path style=" stroke:none;fill-rule:nonzero;fill:rgb(0%,0%,0%);fill-opacity:1;" d="M 65.402344 25.144531 C 65.605469 25.296875 65.804688 25.449219 66.003906 25.601562 C 66.863281 26.265625 67.761719 26.855469 68.710938 27.382812 C 68.75 27.40625 68.792969 27.429688 68.835938 27.453125 C 68.894531 27.480469 68.957031 27.503906 69.019531 27.527344 C 69.144531 27.601562 69.191406 27.636719 69.230469 27.773438 C 69.246094 27.921875 69.246094 28.0625 69.242188 28.210938 C 69.242188 28.265625 69.242188 28.320312 69.242188 28.378906 C 69.242188 28.5625 69.242188 28.746094 69.238281 28.929688 C 69.238281 29.058594 69.238281 29.1875 69.242188 29.316406 C 69.242188 29.652344 69.238281 29.988281 69.238281 30.328125 C 69.234375 30.867188 69.234375 31.40625 69.238281 31.945312 C 69.238281 32.132812 69.234375 32.320312 69.234375 32.511719 C 69.234375 32.625 69.234375 32.742188 69.234375 32.859375 C 69.234375 32.910156 69.230469 32.960938 69.230469 33.015625 C 69.234375 33.40625 69.277344 33.753906 69.53125 34.0625 C 69.839844 34.316406 70.105469 34.375 70.5 34.4375 C 70.515625 34.625 70.507812 34.78125 70.445312 34.960938 C 70.273438 35.132812 70.066406 35.246094 69.855469 35.363281 C 69.746094 35.429688 69.636719 35.492188 69.523438 35.558594 C 69.472656 35.589844 69.417969 35.621094 69.359375 35.652344 C 69.152344 35.777344 68.953125 35.914062 68.753906 36.058594 C 68.625 36.117188 68.625 36.117188 68.488281 36.078125 C 68.335938 35.996094 68.210938 35.894531 68.074219 35.789062 C 68.015625 35.742188 67.957031 35.695312 67.898438 35.648438 C 67.863281 35.621094 67.832031 35.597656 67.796875 35.570312 C 67.589844 35.410156 67.382812 35.25 67.171875 35.09375 C 67.128906 35.0625 67.085938 35.03125 67.042969 35 C 66.847656 34.855469 66.65625 34.714844 66.441406 34.59375 C 66.371094 34.648438 66.371094 34.648438 66.300781 34.699219 C 65.574219 35.246094 64.839844 35.734375 64.042969 36.167969 C 63.960938 36.210938 63.882812 36.261719 63.804688 36.316406 C 63.625 36.410156 63.511719 36.367188 63.320312 36.320312 C 62.550781 36.078125 61.929688 35.707031 61.535156 34.984375 C 61.125 34.136719 61.164062 33.214844 61.453125 32.335938 C 61.824219 31.414062 62.675781 30.976562 63.53125 30.605469 C 63.972656 30.421875 64.421875 30.253906 64.871094 30.085938 C 64.988281 30.039062 65.109375 29.996094 65.226562 29.949219 C 65.394531 29.886719 65.5625 29.824219 65.726562 29.757812 C 65.800781 29.730469 65.800781 29.730469 65.875 29.703125 C 65.917969 29.6875 65.960938 29.671875 66.007812 29.652344 C 66.136719 29.605469 66.261719 29.554688 66.390625 29.5 C 66.417969 28.933594 66.386719 28.492188 66.097656 27.988281 C 65.808594 27.71875 65.808594 27.71875 65.453125 27.558594 C 65.300781 27.601562 65.1875 27.675781 65.054688 27.765625 C 64.847656 27.894531 64.636719 27.988281 64.414062 28.085938 C 64.375 28.101562 64.332031 28.121094 64.289062 28.136719 C 62.644531 28.816406 62.644531 28.816406 62.0625 28.753906 C 61.929688 28.695312 61.890625 28.589844 61.828125 28.460938 C 61.734375 28.289062 61.617188 28.136719 61.503906 27.980469 C 61.550781 27.957031 61.601562 27.9375 61.652344 27.917969 C 62.785156 27.433594 63.78125 26.847656 64.675781 25.984375 C 64.707031 25.953125 64.742188 25.921875 64.773438 25.890625 C 65.011719 25.660156 65.207031 25.410156 65.402344 25.144531 Z M 65.789062 30.664062 C 65.707031 30.703125 65.707031 30.703125 65.621094 30.742188 C 65.308594 30.886719 65.011719 31.039062 64.726562 31.234375 C 64.683594 31.261719 64.640625 31.292969 64.59375 31.320312 C 64.128906 31.769531 63.890625 32.335938 63.871094 32.980469 C 63.886719 33.320312 63.949219 33.570312 64.160156 33.84375 C 64.472656 34.089844 64.792969 34.253906 65.195312 34.277344 C 65.375 34.238281 65.375 34.238281 65.550781 34.167969 C 65.609375 34.144531 65.664062 34.125 65.726562 34.101562 C 65.96875 33.996094 66.207031 33.871094 66.441406 33.753906 C 66.441406 32.644531 66.441406 31.535156 66.441406 30.394531 C 66.238281 30.394531 65.972656 30.582031 65.789062 30.664062 Z M 65.789062 30.664062 "/>
<path style=" stroke:none;fill-rule:nonzero;fill:rgb(0%,0%,0%);fill-opacity:1;" d="M 25.371094 25.144531 C 25.570312 25.296875 25.773438 25.449219 25.972656 25.601562 C 26.832031 26.265625 27.730469 26.855469 28.679688 27.382812 C 28.71875 27.40625 28.761719 27.429688 28.800781 27.453125 C 28.863281 27.480469 28.925781 27.503906 28.988281 27.527344 C 29.113281 27.601562 29.15625 27.636719 29.199219 27.773438 C 29.210938 27.921875 29.210938 28.0625 29.210938 28.210938 C 29.210938 28.265625 29.210938 28.320312 29.210938 28.378906 C 29.210938 28.5625 29.210938 28.746094 29.207031 28.929688 C 29.207031 29.058594 29.207031 29.1875 29.207031 29.316406 C 29.210938 29.652344 29.207031 29.988281 29.207031 30.328125 C 29.203125 30.867188 29.203125 31.40625 29.203125 31.945312 C 29.203125 32.132812 29.203125 32.320312 29.203125 32.511719 C 29.203125 32.625 29.203125 32.742188 29.203125 32.859375 C 29.199219 32.910156 29.199219 32.960938 29.199219 33.015625 C 29.199219 33.40625 29.246094 33.753906 29.496094 34.0625 C 29.808594 34.316406 30.074219 34.375 30.464844 34.4375 C 30.484375 34.625 30.476562 34.78125 30.414062 34.960938 C 30.238281 35.132812 30.035156 35.246094 29.824219 35.363281 C 29.710938 35.429688 29.601562 35.492188 29.492188 35.558594 C 29.4375 35.589844 29.382812 35.621094 29.328125 35.652344 C 29.117188 35.777344 28.917969 35.914062 28.722656 36.058594 C 28.59375 36.117188 28.59375 36.117188 28.457031 36.078125 C 28.304688 35.996094 28.175781 35.894531 28.042969 35.789062 C 27.984375 35.742188 27.921875 35.695312 27.863281 35.648438 C 27.832031 35.621094 27.800781 35.597656 27.765625 35.570312 C 27.558594 35.410156 27.347656 35.25 27.136719 35.09375 C 27.097656 35.0625 27.054688 35.03125 27.011719 35 C 26.816406 34.855469 26.621094 34.714844 26.410156 34.59375 C 26.339844 34.648438 26.339844 34.648438 26.269531 34.699219 C 25.542969 35.246094 24.808594 35.734375 24.011719 36.167969 C 23.929688 36.210938 23.851562 36.261719 23.773438 36.316406 C 23.59375 36.410156 23.480469 36.367188 23.289062 36.320312 C 22.519531 36.078125 21.894531 35.707031 21.503906 34.984375 C 21.089844 34.136719 21.132812 33.214844 21.417969 32.335938 C 21.792969 31.414062 22.640625 30.976562 23.5 30.605469 C 23.941406 30.421875 24.390625 30.253906 24.839844 30.085938 C 24.957031 30.039062 25.074219 29.996094 25.195312 29.949219 C 25.363281 29.886719 25.527344 29.824219 25.695312 29.757812 C 25.769531 29.730469 25.769531 29.730469 25.84375 29.703125 C 25.886719 29.6875 25.929688 29.671875 25.976562 29.652344 C 26.101562 29.605469 26.230469 29.554688 26.359375 29.5 C 26.386719 28.933594 26.355469 28.492188 26.066406 27.988281 C 25.777344 27.71875 25.777344 27.71875 25.421875 27.558594 C 25.265625 27.601562 25.15625 27.675781 25.023438 27.765625 C 24.816406 27.894531 24.605469 27.988281 24.382812 28.085938 C 24.339844 28.101562 24.300781 28.121094 24.253906 28.136719 C 22.609375 28.816406 22.609375 28.816406 22.03125 28.753906 C 21.898438 28.695312 21.859375 28.589844 21.796875 28.460938 C 21.699219 28.289062 21.585938 28.136719 21.472656 27.980469 C 21.519531 27.957031 21.570312 27.9375 21.617188 27.917969 C 22.753906 27.433594 23.75 26.847656 24.644531 25.984375 C 24.675781 25.953125 24.707031 25.921875 24.742188 25.890625 C 24.976562 25.660156 25.175781 25.410156 25.371094 25.144531 Z M 25.757812 30.664062 C 25.675781 30.703125 25.675781 30.703125 25.589844 30.742188 C 25.277344 30.886719 24.980469 31.039062 24.695312 31.234375 C 24.652344 31.261719 24.605469 31.292969 24.5625 31.320312 C 24.097656 31.769531 23.859375 32.335938 23.839844 32.980469 C 23.855469 33.320312 23.917969 33.570312 24.125 33.84375 C 24.4375 34.089844 24.761719 34.253906 25.164062 34.277344 C 25.34375 34.238281 25.34375 34.238281 25.515625 34.167969 C 25.574219 34.144531 25.632812 34.125 25.695312 34.101562 C 25.9375 33.996094 26.171875 33.871094 26.410156 33.753906 C 26.410156 32.644531 26.410156 31.535156 26.410156 30.394531 C 26.207031 30.394531 25.941406 30.582031 25.757812 30.664062 Z M 25.757812 30.664062 "/>
<path style=" stroke:none;fill-rule:nonzero;fill:rgb(0%,0%,0%);fill-opacity:1;" d="M 53.964844 5.5625 C 54.011719 5.585938 54.058594 5.605469 54.105469 5.628906 C 56.875 6.871094 56.875 6.871094 57.242188 7.613281 C 57.199219 7.625 57.15625 7.640625 57.113281 7.65625 C 56.457031 7.902344 55.914062 8.234375 55.355469 8.648438 C 55.203125 8.757812 55.050781 8.867188 54.902344 8.976562 C 54.882812 8.941406 54.867188 8.910156 54.847656 8.875 C 54.421875 8.097656 53.695312 7.714844 52.875 7.453125 C 52.265625 7.296875 51.511719 7.164062 50.898438 7.347656 C 50.773438 7.523438 50.710938 7.722656 50.636719 7.925781 C 50.625 7.960938 50.613281 8 50.597656 8.035156 C 50.445312 8.550781 50.5 9.078125 50.742188 9.554688 C 51.023438 10.046875 51.605469 10.289062 52.125 10.453125 C 53.675781 10.832031 55.34375 10.546875 56.824219 10.027344 C 57.324219 11.023438 57.835938 12.375 57.546875 13.496094 C 57.203125 14.496094 56.367188 15.054688 55.480469 15.523438 C 54.707031 15.894531 53.914062 16.128906 53.082031 16.324219 C 53.011719 16.34375 53.011719 16.34375 52.945312 16.359375 C 52.40625 16.484375 51.992188 16.34375 51.484375 16.167969 C 51.421875 16.148438 51.359375 16.125 51.296875 16.105469 C 50.746094 15.914062 50.222656 15.691406 49.703125 15.433594 C 49.667969 15.414062 49.628906 15.398438 49.59375 15.378906 C 49.035156 15.101562 48.46875 14.789062 48.089844 14.277344 C 48.160156 14.257812 48.160156 14.257812 48.230469 14.234375 C 48.976562 14 49.632812 13.660156 50.28125 13.222656 C 50.398438 13.144531 50.511719 13.078125 50.636719 13.019531 C 50.664062 13.054688 50.6875 13.089844 50.714844 13.128906 C 51.410156 14.113281 52.203125 14.746094 53.394531 15.011719 C 53.683594 15.058594 53.96875 15.074219 54.265625 15.074219 C 54.304688 15.074219 54.34375 15.074219 54.386719 15.074219 C 54.722656 15.074219 55.042969 15.03125 55.367188 14.960938 C 55.402344 14.238281 55.355469 13.527344 54.847656 12.964844 C 54.054688 12.242188 52.929688 11.996094 51.886719 11.96875 C 51.839844 11.96875 51.796875 11.964844 51.75 11.964844 C 51.039062 11.945312 50.324219 11.929688 49.644531 12.1875 C 49.472656 12.238281 49.398438 12.253906 49.234375 12.179688 C 49.136719 12.050781 49.058594 11.933594 48.976562 11.796875 C 48.953125 11.761719 48.933594 11.722656 48.910156 11.683594 C 48.441406 10.886719 48.046875 10.011719 48.226562 9.066406 C 48.492188 8.101562 49.238281 7.46875 50.066406 6.980469 C 50.746094 6.59375 51.445312 6.246094 52.164062 5.9375 C 52.261719 5.898438 52.359375 5.855469 52.457031 5.8125 C 52.613281 5.738281 52.773438 5.671875 52.933594 5.605469 C 52.984375 5.582031 53.035156 5.558594 53.085938 5.535156 C 53.433594 5.390625 53.625 5.398438 53.964844 5.5625 Z M 53.964844 5.5625 "/>
<path style=" stroke:none;fill-rule:nonzero;fill:rgb(0%,0%,0%);fill-opacity:1;" d="M 58.382812 20.15625 C 58.382812 20.261719 58.382812 20.261719 58.382812 20.363281 C 58.386719 21.984375 58.390625 23.605469 58.394531 25.226562 C 58.394531 25.425781 58.394531 25.625 58.394531 25.824219 C 58.394531 25.863281 58.394531 25.90625 58.394531 25.945312 C 58.398438 26.589844 58.398438 27.230469 58.398438 27.875 C 58.398438 28.535156 58.402344 29.195312 58.402344 29.855469 C 58.402344 30.261719 58.40625 30.667969 58.40625 31.074219 C 58.40625 31.386719 58.40625 31.699219 58.40625 32.011719 C 58.40625 32.140625 58.40625 32.269531 58.40625 32.398438 C 58.40625 32.570312 58.410156 32.746094 58.410156 32.921875 C 58.410156 32.996094 58.410156 32.996094 58.410156 33.074219 C 58.414062 33.488281 58.5 33.859375 58.785156 34.171875 C 59.082031 34.355469 59.390625 34.445312 59.734375 34.488281 C 59.722656 34.71875 59.707031 34.933594 59.542969 35.105469 C 59.425781 35.1875 59.308594 35.257812 59.183594 35.328125 C 59.09375 35.378906 59.003906 35.433594 58.914062 35.488281 C 58.871094 35.511719 58.824219 35.539062 58.777344 35.566406 C 58.570312 35.6875 58.371094 35.816406 58.167969 35.945312 C 58.097656 35.988281 58.027344 36.03125 57.960938 36.074219 C 57.910156 36.105469 57.863281 36.136719 57.8125 36.167969 C 57.464844 35.941406 57.132812 35.695312 56.804688 35.441406 C 56.714844 35.367188 56.621094 35.296875 56.53125 35.226562 C 56.46875 35.175781 56.46875 35.175781 56.402344 35.125 C 56.257812 35.011719 56.257812 35.011719 56.101562 34.9375 C 55.902344 34.828125 55.722656 34.722656 55.648438 34.492188 C 55.59375 34.175781 55.609375 33.855469 55.613281 33.535156 C 55.613281 33.429688 55.613281 33.320312 55.613281 33.210938 C 55.613281 32.917969 55.613281 32.625 55.617188 32.328125 C 55.621094 32.023438 55.621094 31.714844 55.621094 31.40625 C 55.621094 30.824219 55.621094 30.238281 55.625 29.65625 C 55.632812 28.613281 55.632812 27.570312 55.632812 26.523438 C 55.636719 26.15625 55.636719 25.792969 55.640625 25.425781 C 55.640625 25.199219 55.640625 24.96875 55.640625 24.742188 C 55.640625 24.636719 55.644531 24.53125 55.644531 24.425781 C 55.644531 24.28125 55.644531 24.136719 55.644531 23.992188 C 55.648438 23.949219 55.648438 23.910156 55.648438 23.867188 C 55.648438 23.511719 55.566406 23.195312 55.378906 22.894531 C 55.167969 22.6875 54.917969 22.605469 54.640625 22.519531 C 54.636719 22.355469 54.636719 22.355469 54.691406 22.152344 C 54.839844 22.027344 55.007812 21.949219 55.175781 21.863281 C 55.28125 21.808594 55.386719 21.753906 55.492188 21.699219 C 55.546875 21.671875 55.601562 21.640625 55.660156 21.613281 C 55.9375 21.472656 56.207031 21.324219 56.476562 21.175781 C 56.570312 21.125 56.664062 21.074219 56.757812 21.023438 C 57.183594 20.792969 57.609375 20.5625 58.03125 20.324219 C 58.328125 20.15625 58.328125 20.15625 58.382812 20.15625 Z M 58.382812 20.15625 "/>
<path style=" stroke:none;fill-rule:nonzero;fill:rgb(0%,0%,0%);fill-opacity:1;" d="M 66.964844 5.339844 C 67.078125 5.367188 67.171875 5.40625 67.273438 5.460938 C 67.308594 5.472656 67.339844 5.484375 67.375 5.5 C 67.863281 5.707031 68.21875 6.097656 68.460938 6.5625 C 68.625 6.980469 68.640625 7.386719 68.640625 7.835938 C 68.640625 7.898438 68.640625 7.960938 68.640625 8.023438 C 68.640625 8.195312 68.640625 8.367188 68.640625 8.535156 C 68.640625 8.714844 68.640625 8.894531 68.640625 9.074219 C 68.644531 9.683594 68.644531 10.296875 68.644531 10.90625 C 68.644531 11.242188 68.648438 11.582031 68.648438 11.917969 C 68.648438 12.097656 68.652344 12.277344 68.648438 12.453125 C 68.648438 12.652344 68.652344 12.851562 68.652344 13.050781 C 68.652344 13.109375 68.652344 13.167969 68.652344 13.226562 C 68.65625 13.667969 68.726562 14.046875 69.027344 14.378906 C 69.324219 14.566406 69.632812 14.652344 69.976562 14.699219 C 69.960938 14.925781 69.949219 15.144531 69.785156 15.316406 C 69.667969 15.398438 69.550781 15.46875 69.425781 15.539062 C 69.335938 15.589844 69.246094 15.644531 69.15625 15.695312 C 69.089844 15.734375 69.089844 15.734375 69.019531 15.773438 C 68.8125 15.894531 68.609375 16.023438 68.410156 16.15625 C 68.339844 16.199219 68.269531 16.242188 68.203125 16.285156 C 68.152344 16.316406 68.105469 16.347656 68.054688 16.378906 C 67.707031 16.152344 67.375 15.90625 67.046875 15.648438 C 66.957031 15.578125 66.863281 15.507812 66.773438 15.4375 C 66.730469 15.402344 66.6875 15.367188 66.644531 15.332031 C 66.5 15.21875 66.5 15.21875 66.34375 15.15625 C 66.148438 15.0625 66.050781 14.980469 65.921875 14.804688 C 65.8125 14.367188 65.851562 13.894531 65.859375 13.445312 C 65.863281 13.3125 65.863281 13.175781 65.859375 13.042969 C 65.859375 12.722656 65.863281 12.40625 65.867188 12.085938 C 65.875 11.484375 65.875 10.882812 65.875 10.277344 C 65.878906 10.082031 65.878906 9.882812 65.882812 9.683594 C 65.882812 9.5625 65.882812 9.441406 65.882812 9.320312 C 65.886719 9.265625 65.886719 9.210938 65.886719 9.15625 C 65.890625 8.757812 65.832031 8.429688 65.621094 8.089844 C 65.484375 7.957031 65.359375 7.898438 65.183594 7.832031 C 65.125 7.808594 65.070312 7.789062 65.011719 7.765625 C 64.96875 7.75 64.925781 7.734375 64.882812 7.714844 C 64.902344 7.421875 64.957031 7.289062 65.167969 7.085938 C 65.214844 7.039062 65.261719 6.992188 65.308594 6.945312 C 65.359375 6.898438 65.410156 6.847656 65.460938 6.800781 C 65.558594 6.707031 65.65625 6.609375 65.753906 6.515625 C 65.800781 6.46875 65.847656 6.425781 65.894531 6.378906 C 66.070312 6.203125 66.234375 6.015625 66.390625 5.828125 C 66.777344 5.363281 66.777344 5.363281 66.964844 5.339844 Z M 66.964844 5.339844 "/>
<path style=" stroke:none;fill-rule:nonzero;fill:rgb(0%,0%,0%);fill-opacity:1;" d="M 68.679688 0.578125 C 68.679688 1.425781 68.679688 2.273438 68.679688 3.148438 C 67.71875 3.632812 67.71875 3.632812 67.371094 3.792969 C 67.308594 3.820312 67.308594 3.820312 67.25 3.847656 C 67.171875 3.886719 67.089844 3.921875 67.007812 3.960938 C 66.886719 4.015625 66.761719 4.074219 66.636719 4.132812 C 66.558594 4.167969 66.480469 4.203125 66.402344 4.242188 C 66.363281 4.257812 66.328125 4.273438 66.289062 4.292969 C 66.03125 4.410156 66.03125 4.410156 65.976562 4.410156 C 65.976562 3.542969 65.976562 2.675781 65.976562 1.785156 C 66.316406 1.613281 66.660156 1.445312 67.011719 1.289062 C 67.078125 1.257812 67.078125 1.257812 67.152344 1.226562 C 67.246094 1.183594 67.34375 1.140625 67.441406 1.097656 C 67.589844 1.03125 67.742188 0.964844 67.890625 0.902344 C 67.984375 0.859375 68.078125 0.816406 68.171875 0.773438 C 68.21875 0.753906 68.261719 0.734375 68.308594 0.714844 C 68.351562 0.695312 68.390625 0.679688 68.433594 0.660156 C 68.46875 0.644531 68.503906 0.628906 68.542969 0.613281 C 68.625 0.578125 68.625 0.578125 68.679688 0.578125 Z M 68.679688 0.578125 "/>
</g>
</svg>
