<?xml version="1.0" encoding="UTF-8"?>
<svg version="1.1" xmlns="http://www.w3.org/2000/svg" width="1558" height="762">
<path d="M0 0 C1.79652985 1.57533548 3.56605605 3.18181458 5.3125 4.8125 C5.8290918 5.28816406 6.34568359 5.76382812 6.87792969 6.25390625 C20.4307099 18.83346011 33.95306344 35.07027403 37.3125 53.8125 C36.43235229 54.0144397 36.43235229 54.0144397 35.53442383 54.22045898 C17.3976419 58.46194114 0.28505443 64.33582921 -15.82421875 73.81640625 C-17.6875 74.8125 -17.6875 74.8125 -19.6875 74.8125 C-19.83445313 73.86890625 -19.98140625 72.9253125 -20.1328125 71.953125 C-22.48889257 58.46659773 -26.71495032 47.68197766 -37.6875 38.8125 C-40.56994644 36.82298534 -43.50833273 35.2743036 -46.6875 33.8125 C-47.59242188 33.38195313 -48.49734375 32.95140625 -49.4296875 32.5078125 C-63.60756814 26.15221083 -78.39455275 25.0318203 -93.6875 23.8125 C-93.76097656 24.83730469 -93.76097656 24.83730469 -93.8359375 25.8828125 C-94.21741924 31.0262387 -94.60298321 36.15758518 -95.17518616 41.28346252 C-96.86472039 56.91876329 -96.98643203 72.50714588 -96.99342227 88.2134788 C-96.99797939 91.94733262 -97.01602923 95.68111883 -97.03321838 99.41493225 C-97.08182499 110.46220832 -97.11327373 121.50952282 -97.13452148 132.55688477 C-97.15112529 141.18413126 -97.17410159 149.81124634 -97.21754223 158.4384051 C-97.23906822 162.84992009 -97.24740079 167.26118371 -97.24514949 171.67274749 C-97.24723191 175.07609096 -97.26863795 178.47927431 -97.28686523 181.88256836 C-97.28228806 183.07512741 -97.27771088 184.26768646 -97.272995 185.49638367 C-97.45394342 206.90685092 -104.71522043 224.10775367 -117.6875 240.8125 C-117.16953857 240.5858667 -116.65157715 240.3592334 -116.11791992 240.12573242 C-92.46364958 229.82768531 -92.46364958 229.82768531 -80.6875 228.8125 C-79.883125 228.73644531 -79.07875 228.66039062 -78.25 228.58203125 C-64.48216464 227.90462446 -50.69108371 231.95225958 -37.375 235.03515625 C-17.96766447 239.47928924 -2.37925404 238.59701432 15.02734375 227.94921875 C22.66352017 222.98252612 29.3217478 216.99117472 36.0390625 210.8671875 C38.73407001 208.43149342 41.49817675 206.10839529 44.3125 203.8125 C49.7575 208.2675 49.7575 208.2675 55.3125 212.8125 C28.16858717 272.05995418 28.16858717 272.05995418 -1.875 284.625 C-12.36739492 288.31792378 -23.0969183 290.04752479 -34.20703125 290.01171875 C-35.0152684 290.01006714 -35.82350555 290.00841553 -36.65623474 290.00671387 C-46.46689505 289.9024739 -56.21080416 288.97612735 -65.97680664 288.10186768 C-100.59502545 285.04143329 -133.56320872 284.35967174 -167.72070312 291.47705078 C-169.6875 291.8125 -169.6875 291.8125 -172.6875 291.8125 C-174.39444877 289.33609763 -175.90120012 286.9216194 -177.375 284.3125 C-177.79072266 283.59707031 -178.20644531 282.88164062 -178.63476562 282.14453125 C-179.662298 280.37292371 -180.67619236 278.59341912 -181.6875 276.8125 C-180.94113281 276.07644531 -180.19476563 275.34039062 -179.42578125 274.58203125 C-162.61608413 257.58049736 -156.53378817 237.88432541 -156.54223633 214.41674805 C-156.53924044 213.06249906 -156.53583693 211.70825093 -156.53205872 210.35400391 C-156.52325807 206.69063608 -156.52088226 203.02729163 -156.52024293 199.36391425 C-156.51953017 197.07075558 -156.51739159 194.77760278 -156.51474571 192.48444557 C-156.5055052 184.4718043 -156.50140919 176.45917962 -156.50219727 168.4465332 C-156.50279766 160.99788361 -156.49225005 153.54930654 -156.4764536 146.10067528 C-156.46334372 139.68853787 -156.45801482 133.27642407 -156.45865268 126.86427337 C-156.45890666 123.04218194 -156.45611095 119.220155 -156.44547462 115.39807701 C-156.43573543 111.80045235 -156.43575399 108.20295308 -156.44299126 104.60532379 C-156.44452171 102.67023098 -156.43623114 100.73513803 -156.42755127 98.80006409 C-156.47838756 84.58115999 -158.79762783 72.44931822 -168.58984375 61.72265625 C-170.66232206 59.69318984 -170.66232206 59.69318984 -173.41796875 58.26953125 C-174.54138672 57.54830078 -174.54138672 57.54830078 -175.6875 56.8125 C-176.0625 53.4375 -176.0625 53.4375 -175.6875 49.8125 C-175.69007813 48.97589844 -175.69265625 48.13929687 -175.6953125 47.27734375 C-174.6875 44.8125 -174.6875 44.8125 -171.09375 43.21484375 C-169.4627297 42.7120724 -167.82681152 42.22504103 -166.1875 41.75 C-145.06226506 34.96981834 -125.79065543 23.91992248 -106.6875 12.8125 C-35.73430965 -28.28532091 -35.73430965 -28.28532091 0 0 Z " transform="translate(185.6875,21.1875)"/>
<path d="M0 0 C3.20650223 2.97518041 4.74182458 6.39952356 6.5625 10.3125 C19.52810315 37.0336275 41.16115982 55.11245799 67 69 C66.70981373 72.26529984 66.36312501 73.65886175 63.93554688 75.93945312 C63.03900391 76.54724609 62.14246094 77.15503906 61.21875 77.78125 C60.22101563 78.46832031 59.22328125 79.15539062 58.1953125 79.86328125 C57.14085937 80.56839844 56.08640625 81.27351563 55 82 C53.98679687 82.69480469 52.97359375 83.38960938 51.9296875 84.10546875 C47.74038193 86.97434762 43.52753742 89.80783062 39.31640625 92.64453125 C32.44028601 97.29377448 25.67918087 102.07186555 19 107 C-0.59065903 97.14002791 -12.14640294 78.73767671 -19.04638672 58.46069336 C-20.40864129 54.32056943 -21.72789031 50.168689 -23 46 C-25.9397753 46 -27.07371758 47.75255532 -29.08764648 49.70703125 C-43.04125017 63.70960989 -49.99154314 78.27878189 -50.31640625 98.0859375 C-50.3475779 99.67131821 -50.3475779 99.67131821 -50.37937927 101.28872681 C-50.44453991 104.65075445 -50.50360361 108.01285737 -50.5625 111.375 C-50.60571708 113.6601639 -50.64933238 115.94532031 -50.69335938 118.23046875 C-50.80018683 123.82023391 -50.90201425 129.41007324 -51 135 C-49.89467926 134.89977539 -48.78935852 134.79955078 -47.65054321 134.69628906 C-37.20561105 133.74978789 -26.76026222 132.80800997 -16.31449318 131.87078857 C-10.94496062 131.38886904 -5.57558557 130.90531892 -0.20654297 130.41796875 C4.98024095 129.94722398 10.1674021 129.48085861 15.35484695 129.01745605 C17.32839471 128.84039424 19.30180445 128.66178672 21.27506638 128.48156738 C24.05069751 128.22834013 26.82678006 127.9807427 29.60302734 127.734375 C30.40864105 127.65956909 31.21425476 127.58476318 32.04428101 127.50769043 C37.70682976 127.01332685 43.3174617 126.92100153 49 127 C48.53851563 127.86238281 48.07703125 128.72476563 47.6015625 129.61328125 C45.79363732 132.99423812 43.9932387 136.37917451 42.19287109 139.76416016 C41.05780148 141.89166067 39.91437188 144.01446478 38.76953125 146.13671875 C32.4750889 157.8791233 26.66186347 169.83693107 20.91381836 181.85351562 C20.59578247 182.51680878 20.27774658 183.18010193 19.95007324 183.86349487 C19.07537435 185.68883143 18.2034983 187.5155199 17.33178711 189.34228516 C16 192 16 192 15 193 C12.66702567 193.04092937 10.33294775 193.04241723 8 193 C7.79246094 192.34773437 7.58492187 191.69546875 7.37109375 191.0234375 C4.83272115 183.82253113 1.91438242 179.6446041 -4.84375 176.0078125 C-14.52257482 171.84274444 -26.37012992 172.76376209 -36.6875 172.4375 C-38.61625977 172.37272461 -38.61625977 172.37272461 -40.58398438 172.30664062 C-43.72257494 172.20163202 -46.86123004 172.09947595 -50 172 C-50.00879936 173.49859558 -50.00879936 173.49859558 -50.01777649 175.02746582 C-50.07560167 184.55619861 -50.14865889 194.08471613 -50.23571491 203.61322784 C-50.27998023 208.50906148 -50.31932544 213.40482019 -50.34643555 218.30078125 C-50.6058412 263.7524439 -53.05175231 309.77555837 -84 346 C-84.43038574 346.50869629 -84.86077148 347.01739258 -85.30419922 347.54150391 C-96.15313889 360.23279225 -108.81079521 370.25504892 -123 379 C-123.33 379 -123.66 379 -124 379 C-125.04943754 371.30412474 -123.89840354 365.92757514 -120.25 359.25 C-109.50953023 339.52212437 -108.89578042 315.77533536 -108.79467773 293.7644043 C-108.7850683 292.39304327 -108.77505659 291.02168502 -108.76467896 289.65032959 C-108.73795514 285.97148264 -108.71677238 282.29262328 -108.69667697 278.61373496 C-108.67461349 274.75270642 -108.64732569 270.89171466 -108.62062073 267.03071594 C-108.57096617 259.73902146 -108.52592784 252.44730627 -108.48259836 245.15557176 C-108.4329912 236.84585148 -108.37816115 228.53616813 -108.32291877 220.2264837 C-108.20951759 203.15102339 -108.10258957 186.07552863 -108 169 C-108.59262131 169.00261841 -109.18524261 169.00523682 -109.79582214 169.00793457 C-112.5240349 169.01843453 -115.25224338 169.02486632 -117.98046875 169.03125 C-119.37839661 169.03753418 -119.37839661 169.03753418 -120.80456543 169.04394531 C-128.24700312 169.0569708 -135.58742814 168.69765382 -143 168 C-142.8584453 164.95807987 -142.71190099 161.91653653 -142.5625 158.875 C-142.52318359 158.0190625 -142.48386719 157.163125 -142.44335938 156.28125 C-142.21843598 151.78278208 -141.86459117 147.43193793 -141 143 C-137.37566012 142.65922686 -133.75044609 142.3287782 -130.125 142 C-128.60519531 141.85691406 -128.60519531 141.85691406 -127.0546875 141.7109375 C-120.68212887 141.13904121 -114.39749765 140.87229836 -108 141 C-109.27289489 117.42557271 -111.40302314 97.85874252 -125 78 C-124.50935059 77.7097998 -124.01870117 77.41959961 -123.51318359 77.12060547 C-112.72629012 70.72717311 -102.05458195 64.18251539 -91.49316406 57.4230957 C-84.72915778 53.094958 -77.93772215 48.81353684 -71.125 44.5625 C-70.12758789 43.94012451 -69.13017578 43.31774902 -68.10253906 42.67651367 C-66.07924663 41.41448094 -64.05580884 40.15268121 -62.03222656 38.89111328 C-57.01909464 35.76456579 -52.00970413 32.6320358 -47 29.5 C-40.84862548 25.65469587 -34.69668213 21.81031036 -28.54296875 17.96875 C-26.94678711 16.97198242 -26.94678711 16.97198242 -25.31835938 15.95507812 C-23.30557607 14.69818724 -21.29257341 13.44164755 -19.27929688 12.18554688 C-12.83079843 8.15804784 -6.40820139 4.09130044 0 0 Z " transform="translate(349,380)"/>
<path d="M0 0 C13.06453893 2.66516594 26.93140963 12.74659212 37 21 C37.87398437 21.70898438 38.74796875 22.41796875 39.6484375 23.1484375 C58.09976352 38.8746446 68.09432331 62.07460942 70.71875 85.87109375 C73.01695614 115.62255075 68.61057238 144.46122291 49 168 C37.35513626 180.85933713 24.31896354 191.15517157 9.765625 200.5078125 C7.19875795 202.16740198 4.76799217 203.9233622 2.359375 205.8046875 C-5.97737841 212.13313459 -5.97737841 212.13313459 -11.0859375 211.796875 C-14.42846188 210.55110476 -17.05443216 209.01458526 -20 207 C-20.55107422 206.62746094 -21.10214844 206.25492188 -21.66992188 205.87109375 C-33.33323757 197.84842711 -39.70514913 189.50545864 -47 177 C-47.33 210.99 -47.66 244.98 -48 280 C-65.16 280 -82.32 280 -100 280 C-100.02187378 270.34665405 -100.02187378 270.34665405 -100.04418945 260.49829102 C-100.0944918 239.25211333 -100.16092874 218.00600885 -100.23571491 196.75990391 C-100.28066951 183.87648397 -100.32008503 170.99309166 -100.34643555 158.10961914 C-100.36941825 146.87964345 -100.40281949 135.6497552 -100.44870156 124.41984886 C-100.47262992 118.4743854 -100.49136131 112.52900851 -100.49761391 106.583498 C-100.5036664 100.98485683 -100.52367263 95.38643717 -100.55427551 89.78787804 C-100.56305302 87.73566349 -100.56677892 85.68341999 -100.56500816 83.63118744 C-100.56335035 80.82272319 -100.58009813 78.01493017 -100.60127258 75.20655823 C-100.59642501 74.40011087 -100.59157743 73.5936635 -100.58658296 72.76277834 C-100.65747795 67.03987899 -101.96661771 62.32620523 -104 57 C-104.495 55.515 -104.495 55.515 -105 54 C-106.74867483 52.91568906 -106.74867483 52.91568906 -109 52 C-110.4540625 51.2265625 -110.4540625 51.2265625 -111.9375 50.4375 C-114.70343312 49.13920486 -116.99681937 48.44164421 -120 48 C-119.9384026 45.03011149 -119.86844167 42.7945618 -119 40 C-116.63534855 38.05770063 -114.93482389 36.97070795 -112.23828125 35.703125 C-111.54432251 35.34727325 -110.85036377 34.99142151 -110.13537598 34.62478638 C-107.87384382 33.47230984 -105.59426668 32.36179111 -103.3125 31.25 C-101.74865429 30.46098832 -100.18640063 29.66881345 -98.62573242 28.87353516 C-95.52182362 27.29430781 -92.41200157 25.72787166 -89.296875 24.17089844 C-83.72745456 21.37423536 -78.2636467 18.39455386 -72.8125 15.375 C-71.10852863 14.43927383 -69.40412102 13.50434149 -67.69921875 12.5703125 C-66.91466309 12.14008789 -66.13010742 11.70986328 -65.32177734 11.26660156 C-59.57309645 8.13051781 -53.78450709 5.06933029 -48 2 C-48 9.26 -48 16.52 -48 24 C-31.49761944 18.92234444 -17.29463304 11.636382 -3 2 C-2.01 1.34 -1.02 0.68 0 0 Z M-32.8125 40.4375 C-37.88377511 41.60259872 -42.84267971 42.3805873 -48 43 C-48.09328874 52.65004324 -48.16406021 62.29992774 -48.20724869 71.95032597 C-48.22799248 76.43294941 -48.25606374 80.91526102 -48.30175781 85.39770508 C-48.34569316 89.7355035 -48.36923598 94.07300482 -48.37950897 98.41100883 C-48.38681587 100.05377304 -48.40108029 101.69652374 -48.42292023 103.33915901 C-48.66459614 122.29574676 -44.82449131 138.55708566 -31.33984375 152.71484375 C-20.58241894 163.22084293 -8.43469412 168.20223877 6.5625 168.125 C7.31724609 168.12886719 8.07199219 168.13273438 8.84960938 168.13671875 C12.40324793 168.13045683 15.58246808 167.95795536 19 167 C27.52152693 137.4642222 28.71119232 105.31353443 14.25 77.3125 C8.73215705 67.87518171 2.10729175 59.85281697 -5.5625 52.125 C-6.48180298 51.1973584 -6.48180298 51.1973584 -7.41967773 50.25097656 C-14.4767112 42.63586677 -14.4767112 42.63586677 -23.53613281 38.80151367 C-26.71451659 39.05756064 -29.70577821 39.72161813 -32.8125 40.4375 Z " transform="translate(601,103)"/>
<path d="M0 0 C0 44.88 0 89.76 0 136 C17.92336253 127.56547646 32.32340098 118.62452554 44.625 103.3125 C48.24448098 99.24784222 48.24448098 99.24784222 51.21484375 98.2734375 C53.93792574 98.17375729 56.31604149 98.51494726 59 99 C60.22074219 99.16371094 61.44148437 99.32742188 62.69921875 99.49609375 C79.54783377 101.96601543 95.43602347 109.16997292 106.3515625 122.66796875 C122.60455471 145.66094588 126.12886339 173.38508518 121.48071289 200.82788086 C116.45213192 227.56080691 105.95647154 252.34040371 88 273 C87.45214844 273.67933594 86.90429688 274.35867188 86.33984375 275.05859375 C81.55778471 280.85811216 75.94616243 285.43301691 70 290 C69.195625 290.62003906 68.39125 291.24007813 67.5625 291.87890625 C58.16067994 298.79109962 48.00625979 303.64713903 36.875 307 C36.1523999 307.21994629 35.4297998 307.43989258 34.68530273 307.66650391 C27.9066816 309.57901772 27.9066816 309.57901772 25 308 C23.02734375 305.69921875 23.02734375 305.69921875 20.9375 302.6875 C4.32902964 279.5223187 -16.65221139 264.75048477 -44.28125 257.91552734 C-45.3954834 257.63850227 -45.3954834 257.63850227 -46.53222656 257.35588074 C-48.35457639 256.90294843 -50.17725557 256.45134164 -52 256 C-52.00238835 255.01877954 -52.00477671 254.03755907 -52.00723743 253.02660465 C-52.06606027 229.13941104 -52.14196038 205.25231807 -52.23571491 181.36523533 C-52.28065971 169.81356786 -52.32007748 158.26193114 -52.34643555 146.71020508 C-52.36942621 136.64045312 -52.40283631 126.57079855 -52.44870156 116.50112385 C-52.47261923 111.17046381 -52.4913576 105.83990015 -52.49761391 100.5091877 C-52.50367127 95.48836127 -52.52369493 90.46778137 -52.55427551 85.44704628 C-52.56304525 83.60769107 -52.56678053 81.76830364 -52.56500816 79.92892838 C-52.17816362 65.15164504 -52.17816362 65.15164504 -58.3125 52.125 C-62.49964851 48.81423141 -67.04439106 46.89479165 -72 45 C-72.08203125 41.84375 -72.08203125 41.84375 -71 38 C-68.20907114 35.59283391 -64.98467142 34.11098189 -61.6875 32.5 C-59.67299366 31.45999063 -57.65868002 30.41960794 -55.64453125 29.37890625 C-54.56768066 28.83379395 -53.49083008 28.28868164 -52.38134766 27.72705078 C-47.09986972 25.02949302 -41.88357475 22.21126811 -36.66265869 19.3989563 C-34.87944049 18.43988823 -33.09416063 17.48477904 -31.30810547 16.53100586 C-23.0911706 12.14009908 -14.91287266 7.68381603 -6.77490234 3.14819336 C-1.1034311 0 -1.1034311 0 0 0 Z M0 154 C-0.07509829 160.11569647 -0.12904247 166.23111469 -0.16479492 172.34716797 C-0.17972569 174.42045782 -0.20007769 176.49371698 -0.22631836 178.56689453 C-0.48892781 199.87430438 0.41143985 220.73367636 16 237 C31.42477876 251.73411702 53.72150471 253.43582101 74 253 C75.32837891 253.04447266 75.32837891 253.04447266 76.68359375 253.08984375 C79.0802896 253.06229552 80.79353104 252.93810828 83 252 C85.27661713 249.30277618 86.08123562 246.36880274 87 243 C87.29648437 241.96101563 87.59296875 240.92203125 87.8984375 239.8515625 C92.96073462 219.55593092 89.55881475 200.79850841 79 183 C76.86265097 179.79397645 74.56591848 176.87204758 72 174 C71.09314453 172.97132813 71.09314453 172.97132813 70.16796875 171.921875 C58.53646064 159.50861583 41.96503169 151.94173862 25.07421875 150.71484375 C16.23816116 150.450971 8.57521121 151.84802722 0 154 Z " transform="translate(678,384)"/>
<path d="M0 0 C7.90176786 -0.151988 15.80315969 -0.25714825 23.70605469 -0.32958984 C26.39527943 -0.35640085 29.08365757 -0.3981671 31.77246094 -0.45263672 C35.63501297 -0.52532681 39.49626443 -0.55943132 43.359375 -0.5859375 C44.5636615 -0.61690521 45.767948 -0.64787292 47.00872803 -0.67977905 C50.12153296 -0.68103762 52.95273623 -0.63558787 56 0 C58.72680664 2.89013672 58.72680664 2.89013672 60 6 C60.33386719 6.7734375 60.66773438 7.546875 61.01171875 8.34375 C61.23472656 9.0553125 61.45773437 9.766875 61.6875 10.5 C62.03361328 11.56734375 62.03361328 11.56734375 62.38671875 12.65625 C65.21603757 23.46893339 64.38330852 34.0676927 62.3671875 44.91015625 C62.19245407 45.85891129 62.01772064 46.80766632 61.83769226 47.78517151 C59.62315775 59.44511347 56.71315125 70.93323692 53.8125 82.4375 C52.99099815 85.71214802 52.1715774 88.98728317 51.35612488 92.26344299 C50.85463454 94.27670957 50.34957983 96.28909301 49.84028625 98.30039978 C46.56669803 111.4009179 43.79187005 126.78244641 51 139 C55.82951419 146.97989265 64.4059589 150.95693702 73.23828125 153.1484375 C78.28790737 154.1869605 83.23212283 154.34534984 88.375 154.3125 C89.30111084 154.30686035 90.22722168 154.3012207 91.18139648 154.29541016 C101.98782015 154.1034058 109.93588115 151.34707339 119.46875 146.3046875 C122 145 122 145 125 144 C125 96.48 125 48.96 125 0 C142.49 0 159.98 0 178 0 C178.0093457 4.21894043 178.01869141 8.43788086 178.02832031 12.78466797 C178.0621095 26.73461054 178.11746934 40.68440617 178.18390274 54.63422966 C178.2236503 63.0907916 178.25606448 71.54726107 178.27099609 80.00390625 C178.28403489 87.37786652 178.31105613 94.75162293 178.35461307 102.12546837 C178.37717806 106.02706366 178.39291368 109.92840799 178.39188385 113.83007431 C178.39113427 117.50905513 178.40920285 121.18748223 178.44116783 124.86631966 C178.45363189 126.84675887 178.44662602 128.82729131 178.43885803 130.80775452 C178.54132052 139.64634024 179.5547584 147.23427081 185.6875 153.9375 C189.64318795 156.40047552 193.52597163 157.77709891 198 159 C197.81090487 163.4604205 197.38527539 165.54874473 194.4453125 168.9921875 C193.35433219 169.97101564 192.2465222 170.93132076 191.125 171.875 C190.24533569 172.65025024 190.24533569 172.65025024 189.34790039 173.44116211 C184.9174293 177.3155021 180.35054777 181.02647624 175.76171875 184.7109375 C172.66514114 187.27754921 169.70381493 189.95952175 166.75 192.6875 C166.24033691 193.1518042 165.73067383 193.6161084 165.20556641 194.09448242 C163.06553892 196.0505082 160.98366276 198.0174882 159.00390625 200.13671875 C157.3125 201.875 157.3125 201.875 154 204 C145.2390348 203.31893557 138.30877044 196.90964362 132.83203125 190.57421875 C128.88083681 185.02232721 127.22733659 178.62523439 126 172 C108.27253933 175.16561798 92.2116939 183.92508834 76.625 192.5625 C75.95243164 192.93383057 75.27986328 193.30516113 74.58691406 193.68774414 C70.65287578 195.91075859 67.2438695 198.36448797 63.75 201.25 C60.93541164 203.28328122 59.64489917 204.01413478 56.1484375 203.9375 C52.95214889 203.21069536 50.04780995 202.20359374 47 201 C45.52853516 200.49339844 45.52853516 200.49339844 44.02734375 199.9765625 C25.51640835 193.09898176 11.77823605 179.56000315 3.49609375 161.76953125 C-9.70999669 129.40475439 -3.4886718 94.48617393 3.57446289 61.48583984 C3.72608383 60.77681015 3.87770477 60.06778046 4.03392029 59.33726501 C4.44968833 57.40240791 4.87042502 55.46862038 5.29150391 53.53491211 C8.74373448 36.31063697 7.64215506 20.21215998 1.42700195 3.77416992 C1.15910355 3.06427414 0.89120514 2.35437836 0.6151886 1.62297058 C0.41217636 1.08739029 0.20916412 0.55181 0 0 Z " transform="translate(832,483)"/>
<path d="M0 0 C7.90176786 -0.151988 15.80315969 -0.25714825 23.70605469 -0.32958984 C26.39527943 -0.35640085 29.08365757 -0.3981671 31.77246094 -0.45263672 C35.63501297 -0.52532681 39.49626443 -0.55943132 43.359375 -0.5859375 C44.5636615 -0.61690521 45.767948 -0.64787292 47.00872803 -0.67977905 C50.12153296 -0.68103762 52.95273623 -0.63558787 56 0 C58.72680664 2.89013672 58.72680664 2.89013672 60 6 C60.33386719 6.7734375 60.66773438 7.546875 61.01171875 8.34375 C61.23472656 9.0553125 61.45773437 9.766875 61.6875 10.5 C62.03361328 11.56734375 62.03361328 11.56734375 62.38671875 12.65625 C65.21603757 23.46893339 64.38330852 34.0676927 62.3671875 44.91015625 C62.19245407 45.85891129 62.01772064 46.80766632 61.83769226 47.78517151 C59.62315775 59.44511347 56.71315125 70.93323692 53.8125 82.4375 C52.99099815 85.71214802 52.1715774 88.98728317 51.35612488 92.26344299 C50.85463454 94.27670957 50.34957983 96.28909301 49.84028625 98.30039978 C46.56669803 111.4009179 43.79187005 126.78244641 51 139 C55.82951419 146.97989265 64.4059589 150.95693702 73.23828125 153.1484375 C78.28790737 154.1869605 83.23212283 154.34534984 88.375 154.3125 C89.30111084 154.30686035 90.22722168 154.3012207 91.18139648 154.29541016 C101.98782015 154.1034058 109.93588115 151.34707339 119.46875 146.3046875 C122 145 122 145 125 144 C125 96.48 125 48.96 125 0 C142.49 0 159.98 0 178 0 C178.0093457 4.21894043 178.01869141 8.43788086 178.02832031 12.78466797 C178.0621095 26.73461054 178.11746934 40.68440617 178.18390274 54.63422966 C178.2236503 63.0907916 178.25606448 71.54726107 178.27099609 80.00390625 C178.28403489 87.37786652 178.31105613 94.75162293 178.35461307 102.12546837 C178.37717806 106.02706366 178.39291368 109.92840799 178.39188385 113.83007431 C178.39113427 117.50905513 178.40920285 121.18748223 178.44116783 124.86631966 C178.45363189 126.84675887 178.44662602 128.82729131 178.43885803 130.80775452 C178.54132052 139.64634024 179.5547584 147.23427081 185.6875 153.9375 C189.64318795 156.40047552 193.52597163 157.77709891 198 159 C197.81090487 163.4604205 197.38527539 165.54874473 194.4453125 168.9921875 C193.35433219 169.97101564 192.2465222 170.93132076 191.125 171.875 C190.24533569 172.65025024 190.24533569 172.65025024 189.34790039 173.44116211 C184.9174293 177.3155021 180.35054777 181.02647624 175.76171875 184.7109375 C172.66514114 187.27754921 169.70381493 189.95952175 166.75 192.6875 C166.24033691 193.1518042 165.73067383 193.6161084 165.20556641 194.09448242 C163.06553892 196.0505082 160.98366276 198.0174882 159.00390625 200.13671875 C157.3125 201.875 157.3125 201.875 154 204 C145.2390348 203.31893557 138.30877044 196.90964362 132.83203125 190.57421875 C128.88083681 185.02232721 127.22733659 178.62523439 126 172 C108.27253933 175.16561798 92.2116939 183.92508834 76.625 192.5625 C75.95243164 192.93383057 75.27986328 193.30516113 74.58691406 193.68774414 C70.65287578 195.91075859 67.2438695 198.36448797 63.75 201.25 C60.93541164 203.28328122 59.64489917 204.01413478 56.1484375 203.9375 C52.95214889 203.21069536 50.04780995 202.20359374 47 201 C45.52853516 200.49339844 45.52853516 200.49339844 44.02734375 199.9765625 C25.51640835 193.09898176 11.77823605 179.56000315 3.49609375 161.76953125 C-9.70999669 129.40475439 -3.4886718 94.48617393 3.57446289 61.48583984 C3.72608383 60.77681015 3.87770477 60.06778046 4.03392029 59.33726501 C4.44968833 57.40240791 4.87042502 55.46862038 5.29150391 53.53491211 C8.74373448 36.31063697 7.64215506 20.21215998 1.42700195 3.77416992 C1.15910355 3.06427414 0.89120514 2.35437836 0.6151886 1.62297058 C0.41217636 1.08739029 0.20916412 0.55181 0 0 Z " transform="translate(704,106)"/>
<path d="M0 0 C7.90176786 -0.151988 15.80315969 -0.25714825 23.70605469 -0.32958984 C26.39527943 -0.35640085 29.08365757 -0.3981671 31.77246094 -0.45263672 C35.63501297 -0.52532681 39.49626443 -0.55943132 43.359375 -0.5859375 C44.5636615 -0.61690521 45.767948 -0.64787292 47.00872803 -0.67977905 C50.12153296 -0.68103762 52.95273623 -0.63558787 56 0 C58.72680664 2.89013672 58.72680664 2.89013672 60 6 C60.33386719 6.7734375 60.66773438 7.546875 61.01171875 8.34375 C61.23472656 9.0553125 61.45773437 9.766875 61.6875 10.5 C62.03361328 11.56734375 62.03361328 11.56734375 62.38671875 12.65625 C65.21603757 23.46893339 64.38330852 34.0676927 62.3671875 44.91015625 C62.19245407 45.85891129 62.01772064 46.80766632 61.83769226 47.78517151 C59.62315775 59.44511347 56.71315125 70.93323692 53.8125 82.4375 C52.99099815 85.71214802 52.1715774 88.98728317 51.35612488 92.26344299 C50.85463454 94.27670957 50.34957983 96.28909301 49.84028625 98.30039978 C46.56669803 111.4009179 43.79187005 126.78244641 51 139 C55.82951419 146.97989265 64.4059589 150.95693702 73.23828125 153.1484375 C78.28790737 154.1869605 83.23212283 154.34534984 88.375 154.3125 C89.30111084 154.30686035 90.22722168 154.3012207 91.18139648 154.29541016 C101.98782015 154.1034058 109.93588115 151.34707339 119.46875 146.3046875 C122 145 122 145 125 144 C125 96.48 125 48.96 125 0 C142.49 0 159.98 0 178 0 C178.0093457 4.21894043 178.01869141 8.43788086 178.02832031 12.78466797 C178.0621095 26.73461054 178.11746934 40.68440617 178.18390274 54.63422966 C178.2236503 63.0907916 178.25606448 71.54726107 178.27099609 80.00390625 C178.28403489 87.37786652 178.31105613 94.75162293 178.35461307 102.12546837 C178.37717806 106.02706366 178.39291368 109.92840799 178.39188385 113.83007431 C178.39113427 117.50905513 178.40920285 121.18748223 178.44116783 124.86631966 C178.45363189 126.84675887 178.44662602 128.82729131 178.43885803 130.80775452 C178.54132052 139.64634024 179.5547584 147.23427081 185.6875 153.9375 C189.64318795 156.40047552 193.52597163 157.77709891 198 159 C197.81090487 163.4604205 197.38527539 165.54874473 194.4453125 168.9921875 C193.35433219 169.97101564 192.2465222 170.93132076 191.125 171.875 C190.24533569 172.65025024 190.24533569 172.65025024 189.34790039 173.44116211 C184.9174293 177.3155021 180.35054777 181.02647624 175.76171875 184.7109375 C172.66514114 187.27754921 169.70381493 189.95952175 166.75 192.6875 C166.24033691 193.1518042 165.73067383 193.6161084 165.20556641 194.09448242 C163.06553892 196.0505082 160.98366276 198.0174882 159.00390625 200.13671875 C157.3125 201.875 157.3125 201.875 154 204 C145.2390348 203.31893557 138.30877044 196.90964362 132.83203125 190.57421875 C128.88083681 185.02232721 127.22733659 178.62523439 126 172 C108.27253933 175.16561798 92.2116939 183.92508834 76.625 192.5625 C75.95243164 192.93383057 75.27986328 193.30516113 74.58691406 193.68774414 C70.65287578 195.91075859 67.2438695 198.36448797 63.75 201.25 C60.93541164 203.28328122 59.64489917 204.01413478 56.1484375 203.9375 C52.95214889 203.21069536 50.04780995 202.20359374 47 201 C45.52853516 200.49339844 45.52853516 200.49339844 44.02734375 199.9765625 C25.51640835 193.09898176 11.77823605 179.56000315 3.49609375 161.76953125 C-9.70999669 129.40475439 -3.4886718 94.48617393 3.57446289 61.48583984 C3.72608383 60.77681015 3.87770477 60.06778046 4.03392029 59.33726501 C4.44968833 57.40240791 4.87042502 55.46862038 5.29150391 53.53491211 C8.74373448 36.31063697 7.64215506 20.21215998 1.42700195 3.77416992 C1.15910355 3.06427414 0.89120514 2.35437836 0.6151886 1.62297058 C0.41217636 1.08739029 0.20916412 0.55181 0 0 Z " transform="translate(263,106)"/>
<path d="M0 0 C10.38348707 3.24483971 18.77314742 7.8255249 25 17 C26.5110537 19.93763855 27.81213462 22.91853745 29 26 C49.16649479 21.09951918 70.17765591 15.3712729 86.75 2.3125 C89.24805173 0.60991726 90.45554524 -0.01192859 93.49609375 0.0546875 C96.50943537 0.76319453 99.15926626 1.76681326 102 3 C103.14210938 3.495 104.28421875 3.99 105.4609375 4.5 C122.53151851 12.49836334 134.19048377 24.27859843 141 42 C158.82554698 91.59384854 144.06974206 154.11641867 135 204 C112.56 204 90.12 204 67 204 C70.3 195.75 73.6 187.5 77 179 C78.76892296 174.33970496 80.51898585 169.69412078 82.1875 165 C82.80165771 163.27245483 82.80165771 163.27245483 83.42822266 161.51000977 C99.82461321 116.92223824 99.82461321 116.92223824 96 71 C94.76073945 68.7612168 93.46203217 66.64966807 91.98828125 64.55859375 C91 63 91 63 91 61 C90.46375 60.7525 89.9275 60.505 89.375 60.25 C87 59 87 59 84.30078125 57.0625 C73.19162217 50.12091894 56.69309363 49.0042309 43.97509766 51.37792969 C40.20015686 52.29123752 36.59942224 53.55389781 33 55 C31.35 55.66 29.7 56.32 28 57 C28 105.51 28 154.02 28 204 C10.84 204 -6.32 204 -24 204 C-24.02187378 197.70917358 -24.02187378 197.70917358 -24.04418945 191.29125977 C-24.0945437 177.42913376 -24.16099092 163.56712398 -24.23571491 149.7051096 C-24.28062422 141.30122191 -24.32005004 132.89737615 -24.34643555 124.4934082 C-24.3694551 117.16599589 -24.40289715 109.83871677 -24.44870156 102.51141018 C-24.47258059 98.63392012 -24.49134412 94.75656154 -24.49761391 90.87899971 C-24.50368899 87.22390323 -24.52377536 83.56914292 -24.55427551 79.91417122 C-24.56716257 77.94427535 -24.56549245 75.97430079 -24.5632782 74.00436401 C-24.6490706 65.85935705 -25.44402442 59.10623033 -29.796875 52.11328125 C-32.43938065 49.57853736 -34.83671224 48.48603339 -38.25 47.1875 C-39.32765625 46.76855469 -40.4053125 46.34960938 -41.515625 45.91796875 C-42.33546875 45.61503906 -43.1553125 45.31210938 -44 45 C-43.86756345 40.43957617 -43.40853694 37.9753392 -40.12109375 34.71875 C-38.90857803 33.62851735 -37.67982686 32.5561371 -36.4375 31.5 C-35.79490234 30.93031494 -35.15230469 30.36062988 -34.49023438 29.77368164 C-32.67273426 28.16728904 -30.83844495 26.58231651 -29 25 C-28.26910156 24.34902344 -27.53820313 23.69804688 -26.78515625 23.02734375 C-24.87640134 21.32742417 -22.9421374 19.66172184 -21 18 C-19.88402381 17.04177238 -18.76814817 16.08342764 -17.65234375 15.125 C-14.69096754 12.58304785 -11.72673908 10.04445325 -8.76123047 7.50732422 C-5.83931262 5.0066421 -2.91967973 2.50329453 0 0 Z " transform="translate(1410,104)"/>
<path d="M0 0 C3.86257867 2.88701462 7.72091235 5.77820618 11.54296875 8.71875 C28.08072623 21.3846172 45.38874739 32.58082612 63.61083984 42.66650391 C64.3992627 43.10655762 65.18768555 43.54661133 66 44 C67.18697479 44.47281906 68.37394958 44.94563812 69.59689331 45.43278503 C71.95338469 46.79923182 72.83494608 47.46276141 73.6437664 50.09541321 C73.88469369 52.8878077 73.89639598 55.60649188 73.83886719 58.40893555 C73.84482407 59.46795578 73.85078094 60.52697601 73.85691833 61.61808777 C73.86904609 65.1250869 73.83248813 68.62990739 73.796875 72.13671875 C73.79864235 74.5756733 73.80392003 77.01462762 73.81256104 79.4535675 C73.8278448 85.88329884 73.80393269 92.31224738 73.76934814 98.74188232 C73.7189709 109.01518599 73.72054238 119.28845108 73.73575592 129.56183815 C73.73439545 133.14534765 73.71206249 136.72827752 73.68719482 140.31169128 C73.68374861 142.52249058 73.68088989 144.73329089 73.67871094 146.9440918 C73.66627853 147.93403137 73.65384613 148.92397095 73.64103699 149.94390869 C73.66036116 157.38106237 74.52995723 164.00994822 79.375 169.875 C85.35654727 174.71720493 90.46746384 175.87869427 98 177 C98.33953532 180.59349173 98.17602189 183.57024529 97 187 C93.64278972 190.30016661 89.72768794 192.42201811 85.625 194.6875 C83.51283116 195.92024799 81.40085104 197.15331939 79.2890625 198.38671875 C78.24395508 198.97501465 77.19884766 199.56331055 76.12207031 200.16943359 C72.0805216 202.53911863 68.26095509 205.19740229 64.45068359 207.92114258 C62 209 62 209 59.35253906 208.30053711 C56.44774543 206.69470111 53.97234181 204.81964968 51.375 202.75 C50.23842582 201.85623019 49.10030341 200.96442696 47.9609375 200.07421875 C47.33799805 199.58743652 46.71505859 199.1006543 46.07324219 198.59912109 C42.09233648 195.52859208 38.0454695 192.5471299 34 189.5625 C33.18708496 188.95954102 32.37416992 188.35658203 31.53662109 187.73535156 C27.78399666 184.96943882 24.07047422 182.28964175 20 180 C18.63681641 181.01707031 18.63681641 181.01707031 17.24609375 182.0546875 C3.28963066 192.41553633 -10.82951242 201.75392343 -26.15893555 209.97436523 C-27.72969586 210.84941683 -29.24543942 211.82202545 -30.74609375 212.8125 C-34.21282693 214.63899374 -36.37820086 213.82298339 -40.05859375 212.91796875 C-54.84929775 208.30201199 -66.84084119 201.25461888 -74.40234375 187.4375 C-82.31340964 171.29433947 -81.54526023 153.74486779 -76 137 C-68.83188192 119.42408057 -52.48737282 111.08882078 -36 104 C-27.48311289 100.53759507 -18.86083245 97.34442132 -10.25 94.125 C-7.96069308 93.26367018 -5.67162892 92.40169488 -3.3828125 91.5390625 C-0.17396389 90.3298354 3.03519571 89.12153026 6.24627686 87.91824341 C7.66496063 87.38661087 7.66496063 87.38661087 9.11230469 86.84423828 C9.93817078 86.53527618 10.76403687 86.22631409 11.6149292 85.9079895 C14.0882387 84.96640778 16.54552761 83.98953705 19 83 C19.52703523 72.15185822 18.93053277 63.80284518 13.375 54.1875 C7.82070532 49.06471576 7.82070532 49.06471576 1 46 C-1.99913567 46.83416474 -4.11157824 48.23909347 -6.71484375 49.9453125 C-10.66355792 52.41501958 -14.70902827 54.21173385 -19 56 C-19.81033691 56.33813721 -20.62067383 56.67627441 -21.45556641 57.0246582 C-53.0849392 69.94086282 -53.0849392 69.94086282 -64.2578125 68.76171875 C-66.82209643 67.64056322 -67.5777028 65.60128831 -68.77734375 63.1796875 C-70.59473568 59.93973639 -72.80772934 56.99465325 -75 54 C-74.06542969 53.61070312 -73.13085938 53.22140625 -72.16796875 52.8203125 C-50.32932259 43.58457307 -31.21112258 32.4753311 -14 16 C-13.36835937 15.40832031 -12.73671875 14.81664062 -12.0859375 14.20703125 C-7.55775658 9.84840777 -3.75405733 5.0320343 0 0 Z M7.4375 105.1875 C5.8277832 105.91163086 5.8277832 105.91163086 4.18554688 106.65039062 C-1.83145575 109.39544081 -7.51510367 112.30056508 -13 116 C-13.845625 116.556875 -14.69125 117.11375 -15.5625 117.6875 C-24.51415055 126.18009155 -29.0651424 137.00918419 -29.4375 149.3125 C-29.18271071 155.75017618 -27.93060358 160.48436503 -23.9375 165.6875 C-17.93059222 170.4163423 -11.70450241 173.51586009 -4 174 C-0.55654866 173.24402475 -0.55654866 173.24402475 2.8125 171.875 C3.93269531 171.45992187 5.05289062 171.04484375 6.20703125 170.6171875 C10.89784169 168.61719211 15.43897519 166.28051241 20 164 C20 142.88 20 121.76 20 100 C16.05767635 100 10.97025154 103.575307 7.4375 105.1875 Z " transform="translate(1258,479)"/>
<path d="M0 0 C3.86257867 2.88701462 7.72091235 5.77820618 11.54296875 8.71875 C28.08072623 21.3846172 45.38874739 32.58082612 63.61083984 42.66650391 C64.3992627 43.10655762 65.18768555 43.54661133 66 44 C67.18697479 44.47281906 68.37394958 44.94563812 69.59689331 45.43278503 C71.95338469 46.79923182 72.83494608 47.46276141 73.6437664 50.09541321 C73.88469369 52.8878077 73.89639598 55.60649188 73.83886719 58.40893555 C73.84482407 59.46795578 73.85078094 60.52697601 73.85691833 61.61808777 C73.86904609 65.1250869 73.83248813 68.62990739 73.796875 72.13671875 C73.79864235 74.5756733 73.80392003 77.01462762 73.81256104 79.4535675 C73.8278448 85.88329884 73.80393269 92.31224738 73.76934814 98.74188232 C73.7189709 109.01518599 73.72054238 119.28845108 73.73575592 129.56183815 C73.73439545 133.14534765 73.71206249 136.72827752 73.68719482 140.31169128 C73.68374861 142.52249058 73.68088989 144.73329089 73.67871094 146.9440918 C73.66627853 147.93403137 73.65384613 148.92397095 73.64103699 149.94390869 C73.66036116 157.38106237 74.52995723 164.00994822 79.375 169.875 C85.35654727 174.71720493 90.46746384 175.87869427 98 177 C98.33953532 180.59349173 98.17602189 183.57024529 97 187 C93.64278972 190.30016661 89.72768794 192.42201811 85.625 194.6875 C83.51283116 195.92024799 81.40085104 197.15331939 79.2890625 198.38671875 C78.24395508 198.97501465 77.19884766 199.56331055 76.12207031 200.16943359 C72.0805216 202.53911863 68.26095509 205.19740229 64.45068359 207.92114258 C62 209 62 209 59.35253906 208.30053711 C56.44774543 206.69470111 53.97234181 204.81964968 51.375 202.75 C50.23842582 201.85623019 49.10030341 200.96442696 47.9609375 200.07421875 C47.33799805 199.58743652 46.71505859 199.1006543 46.07324219 198.59912109 C42.09233648 195.52859208 38.0454695 192.5471299 34 189.5625 C33.18708496 188.95954102 32.37416992 188.35658203 31.53662109 187.73535156 C27.78399666 184.96943882 24.07047422 182.28964175 20 180 C18.63681641 181.01707031 18.63681641 181.01707031 17.24609375 182.0546875 C3.28963066 192.41553633 -10.82951242 201.75392343 -26.15893555 209.97436523 C-27.72969586 210.84941683 -29.24543942 211.82202545 -30.74609375 212.8125 C-34.21282693 214.63899374 -36.37820086 213.82298339 -40.05859375 212.91796875 C-54.84929775 208.30201199 -66.84084119 201.25461888 -74.40234375 187.4375 C-82.31340964 171.29433947 -81.54526023 153.74486779 -76 137 C-68.83188192 119.42408057 -52.48737282 111.08882078 -36 104 C-27.48311289 100.53759507 -18.86083245 97.34442132 -10.25 94.125 C-7.96069308 93.26367018 -5.67162892 92.40169488 -3.3828125 91.5390625 C-0.17396389 90.3298354 3.03519571 89.12153026 6.24627686 87.91824341 C7.66496063 87.38661087 7.66496063 87.38661087 9.11230469 86.84423828 C9.93817078 86.53527618 10.76403687 86.22631409 11.6149292 85.9079895 C14.0882387 84.96640778 16.54552761 83.98953705 19 83 C19.52703523 72.15185822 18.93053277 63.80284518 13.375 54.1875 C7.82070532 49.06471576 7.82070532 49.06471576 1 46 C-1.99913567 46.83416474 -4.11157824 48.23909347 -6.71484375 49.9453125 C-10.66355792 52.41501958 -14.70902827 54.21173385 -19 56 C-19.81033691 56.33813721 -20.62067383 56.67627441 -21.45556641 57.0246582 C-53.0849392 69.94086282 -53.0849392 69.94086282 -64.2578125 68.76171875 C-66.82209643 67.64056322 -67.5777028 65.60128831 -68.77734375 63.1796875 C-70.59473568 59.93973639 -72.80772934 56.99465325 -75 54 C-74.06542969 53.61070312 -73.13085938 53.22140625 -72.16796875 52.8203125 C-50.32932259 43.58457307 -31.21112258 32.4753311 -14 16 C-13.36835938 15.40832031 -12.73671875 14.81664062 -12.0859375 14.20703125 C-7.55775658 9.84840777 -3.75405733 5.0320343 0 0 Z M7.4375 105.1875 C5.8277832 105.91163086 5.8277832 105.91163086 4.18554688 106.65039062 C-1.83145575 109.39544081 -7.51510367 112.30056508 -13 116 C-13.845625 116.556875 -14.69125 117.11375 -15.5625 117.6875 C-24.51415055 126.18009155 -29.0651424 137.00918419 -29.4375 149.3125 C-29.18271071 155.75017618 -27.93060358 160.48436503 -23.9375 165.6875 C-17.93059222 170.4163423 -11.70450241 173.51586009 -4 174 C-0.55654866 173.24402475 -0.55654866 173.24402475 2.8125 171.875 C3.93269531 171.45992187 5.05289063 171.04484375 6.20703125 170.6171875 C10.89784169 168.61719211 15.43897519 166.28051241 20 164 C20 142.88 20 121.76 20 100 C16.05767635 100 10.97025154 103.575307 7.4375 105.1875 Z " transform="translate(488,479)"/>
<path d="M0 0 C0.89823486 0.39396973 1.79646973 0.78793945 2.72192383 1.19384766 C55.95710493 24.91420987 55.95710493 24.91420987 63 39 C62.18917969 39.29132813 61.37835937 39.58265625 60.54296875 39.8828125 C47.93712938 44.54946782 37.46917899 50.83248018 26.71289062 58.74658203 C23.82768956 60.85784518 20.91244845 62.92654368 18 65 C17.67128906 64.3709375 17.34257813 63.741875 17.00390625 63.09375 C8.76132755 48.26157586 -5.18944874 40.96500607 -21 36 C-32.72077064 33.00389299 -47.19116204 30.51179859 -59 34 C-61.40502725 37.32150608 -62.6253295 41.15092261 -64 45 C-64.24878906 45.68835938 -64.49757813 46.37671875 -64.75390625 47.0859375 C-67.70898587 56.88109651 -66.62519287 66.95921514 -62 76 C-56.55628263 85.42117032 -45.37553885 90.00118242 -35.38671875 93.1328125 C-5.5641765 100.35190028 26.47907028 94.94225958 55 85 C64.57631862 103.95945503 74.45055744 129.71884197 68.875 151.125 C62.25030193 170.17860407 46.19102763 180.81471886 29.125 189.6875 C14.28908426 196.81794012 -1.01221191 201.23066295 -17 205 C-18.30565918 205.32194336 -18.30565918 205.32194336 -19.63769531 205.65039062 C-29.95833212 208.00691633 -37.92794223 205.31858101 -47.75 202 C-48.94141602 201.59918213 -50.13283203 201.19836426 -51.36035156 200.78540039 C-61.89936944 197.16517564 -72.01016541 192.92572943 -82 188 C-82.69544922 187.6611377 -83.39089844 187.32227539 -84.10742188 186.97314453 C-94.82443132 181.69957288 -105.73136356 175.7198862 -113 166 C-111.65421875 165.5978125 -111.65421875 165.5978125 -110.28125 165.1875 C-95.97861464 160.69576328 -83.33521972 154.20788173 -70.890625 145.8828125 C-68.62559069 144.40747934 -66.44812987 143.12899193 -64 142 C-63.5153125 142.68964844 -63.030625 143.37929687 -62.53125 144.08984375 C-49.14676474 162.8538625 -33.90738601 174.90075312 -11 180 C-5.38832006 180.85985418 0.07701805 181.19241699 5.75 181.1875 C6.52843262 181.18814453 7.30686523 181.18878906 8.10888672 181.18945312 C14.54160003 181.13108245 20.7101304 180.3813047 27 179 C27.63462377 165.26744671 26.7564417 151.71375435 17 141 C1.75096254 127.20203956 -19.91116367 122.53809383 -40 122 C-40.85078125 121.97421875 -41.7015625 121.9484375 -42.578125 121.921875 C-56.30114293 121.55494939 -70.06341632 121.28934594 -83.1171875 126.1640625 C-86.43932902 127.12739351 -87.82713647 127.40563456 -91 126 C-92.88961089 123.5923183 -94.40663804 121.37000802 -95.9375 118.75 C-96.3713501 118.02997803 -96.8052002 117.30995605 -97.25219727 116.56811523 C-106.25612754 101.36360246 -113.87601474 84.70925611 -110.3515625 66.68359375 C-105.27684527 48.31485231 -90.92983965 36.29352765 -75 27 C-61.91939924 19.64707221 -48.4477537 13.00673234 -34.64208984 7.12939453 C-32.77031027 6.32927881 -30.90393781 5.51645911 -29.04150391 4.69482422 C-25.97748249 3.34882779 -22.89828003 2.04522598 -19.8125 0.75 C-18.86826172 0.33016846 -17.92402344 -0.08966309 -16.95117188 -0.5222168 C-10.19845063 -3.27437125 -6.51140295 -3.13664391 0 0 Z " transform="translate(1038,106)"/>
<path d="M0 0 C0.00219984 1.94974511 0.00219984 1.94974511 0.00444412 3.93887901 C0.04016796 34.813868 0.09644063 65.68874381 0.17792095 96.56364336 C0.18793807 100.36615899 0.19778226 104.16867505 0.20751953 107.97119141 C0.2094609 108.72818445 0.21140228 109.4851775 0.21340248 110.26510973 C0.24439962 122.51241735 0.26139674 134.75970623 0.27319422 147.00704567 C0.28561764 159.57966526 0.31314588 172.15218678 0.35461307 184.72474444 C0.37971447 192.47889589 0.39311974 200.23288465 0.39142957 207.98707731 C0.39139622 213.93912207 0.41240732 219.8909776 0.44116783 225.84295654 C0.44967493 228.28015354 0.4514113 230.71738522 0.44580269 233.15459061 C0.43915386 236.48829823 0.45710619 239.82102377 0.48101807 243.15463257 C0.46937744 244.59339125 0.46937744 244.59339125 0.45750165 246.06121576 C0.55762186 253.97362789 2.25272852 260.99716838 7.6875 266.9375 C13.38990292 270.48805276 19.34978998 272.14740897 26 273 C25.70291235 277.37313022 25.41851833 281.49697769 22.31152344 284.7890625 C20.06374128 286.35237357 17.7806564 287.69264435 15.375 289 C13.65740482 290.00495668 11.93995963 291.01016975 10.22265625 292.015625 C9.35398926 292.50869141 8.48532227 293.00175781 7.59033203 293.50976562 C3.5925415 295.80971976 -0.29209652 298.28204925 -4.1875 300.75 C-5.51361929 301.57925129 -6.84037098 302.40749276 -8.16796875 303.234375 C-9.10253906 303.81703125 -10.03710938 304.3996875 -11 305 C-17.701325 300.67320843 -24.06292883 295.99829024 -30.375 291.125 C-32.1318436 289.7721783 -33.8896588 288.42061745 -35.6484375 287.0703125 C-36.87663963 286.09287755 -36.87663963 286.09287755 -38.12965393 285.09569645 C-40.90386501 282.94785846 -40.90386501 282.94785846 -43.88340759 281.56036282 C-47.73568922 279.47152452 -51.19427647 277.4584808 -52.62607574 273.08967328 C-53.6732379 267.06793375 -53.40606597 260.95230453 -53.29296875 254.86547852 C-53.29481832 252.80010012 -53.30155169 250.7347212 -53.31278992 248.66937256 C-53.32984662 243.07139836 -53.27978537 237.4757822 -53.21846771 231.87819409 C-53.16657205 226.01409074 -53.17938338 220.15015072 -53.18603516 214.28587341 C-53.18937101 203.1758459 -53.13934797 192.06677097 -53.06796646 180.95699686 C-52.94233494 161.06735349 -52.91607971 141.17737642 -52.89607525 121.28738731 C-52.88706336 114.31001233 -52.85768515 107.33309961 -52.8107996 100.35587895 C-52.78373004 96.01137987 -52.76841901 91.66688842 -52.7555027 87.32232666 C-52.74675041 85.31198541 -52.73275484 83.3016589 -52.71304893 81.29139519 C-52.6866155 78.54040353 -52.67884271 75.7899364 -52.67529297 73.03883362 C-52.66294208 72.24951606 -52.65059118 71.4601985 -52.63786602 70.64696223 C-52.66205916 63.87665381 -54.18459799 57.87960319 -57.8125 52.125 C-61.8498501 48.20300276 -66.70389614 46.63927024 -72 45 C-72.08203125 41.84375 -72.08203125 41.84375 -71 38 C-68.20907114 35.59283391 -64.98467142 34.11098189 -61.6875 32.5 C-59.67299366 31.45999063 -57.65868002 30.41960794 -55.64453125 29.37890625 C-54.56768066 28.83379395 -53.49083008 28.28868164 -52.38134766 27.72705078 C-47.09986972 25.02949302 -41.88357475 22.21126811 -36.66265869 19.3989563 C-34.87944049 18.43988823 -33.09416063 17.48477904 -31.30810547 16.53100586 C-23.0911706 12.14009908 -14.91287266 7.68381603 -6.77490234 3.14819336 C-1.1034311 0 -1.1034311 0 0 0 Z " transform="translate(1123,384)"/>
<path d="M0 0 C2.18263301 0.49216235 3.93580853 1.25084997 5.9296875 2.26171875 C6.56519531 2.50664063 7.20070313 2.7515625 7.85546875 3.00390625 C17.26956248 6.9657493 24.06555831 14.42463819 28.7734375 23.29296875 C31.88207132 31.27459614 32.21657606 39.01355293 32.18505859 47.50756836 C32.18867905 48.70226242 32.1922995 49.89695648 32.19602966 51.12785339 C32.20468133 54.3799911 32.2049478 57.63201222 32.2026782 60.88415599 C32.20343096 64.30411839 32.21853137 67.72400912 32.23306274 71.14393616 C32.27988519 82.77032961 32.30402398 94.39670966 32.31054688 106.02319336 C32.31430909 112.45781482 32.33242639 118.89224213 32.36564124 125.32678038 C32.38246156 128.72302909 32.39173031 132.11892486 32.38270187 135.51521111 C32.37561233 139.30592861 32.39295328 143.0958338 32.41552734 146.88647461 C32.40735489 147.99587402 32.39918243 149.10527344 32.39076233 150.24829102 C32.47909033 158.61507873 33.83766278 165.88206382 39.6171875 172.19921875 C45.31959042 175.74977151 51.27947748 177.40912772 57.9296875 178.26171875 C57.63259985 182.63484897 57.34820583 186.75869644 54.24121094 190.05078125 C51.99342878 191.61409232 49.7103439 192.9543631 47.3046875 194.26171875 C45.58709232 195.26667543 43.86964713 196.2718885 42.15234375 197.27734375 C40.84934326 198.01694336 40.84934326 198.01694336 39.52001953 198.77148438 C35.522229 201.07143851 31.63759098 203.543768 27.7421875 206.01171875 C26.41606821 206.84097004 25.08931652 207.66921151 23.76171875 208.49609375 C22.82714844 209.07875 21.89257812 209.66140625 20.9296875 210.26171875 C14.2283625 205.93492718 7.86675867 201.26000899 1.5546875 196.38671875 C-0.2021561 195.03389705 -1.9599713 193.6823362 -3.71875 192.33203125 C-4.53741547 191.67305344 -5.35608093 191.01407562 -6.19955444 190.33512878 C-8.95243483 188.18789779 -8.95243483 188.18789779 -11.95742798 187.0226593 C-15.71143025 185.19298841 -17.5997975 183.6695278 -20.0703125 180.26171875 C-22.22451195 171.95327826 -21.41280383 162.92320865 -21.2578125 154.421875 C-21.2521125 151.85412717 -21.25170422 149.28636263 -21.25634766 146.71861267 C-21.25634766 140.65490265 -21.20978794 134.59329868 -21.13827896 128.53006214 C-21.00503583 117.0395314 -20.98593394 105.54839827 -20.96182251 94.05721855 C-20.94556069 90.29184157 -20.90504978 86.52735389 -20.86010742 82.76222229 C-20.84387241 80.44312794 -20.82798492 78.12403112 -20.8125 75.80493164 C-20.79378342 74.76517181 -20.77506683 73.72541199 -20.75578308 72.65414429 C-20.72987475 65.11870548 -21.84862282 58.83091152 -25.8671875 52.375 C-28.50969315 49.84025611 -30.90702474 48.74775214 -34.3203125 47.44921875 C-35.39796875 47.03027344 -36.475625 46.61132812 -37.5859375 46.1796875 C-38.40578125 45.87675781 -39.225625 45.57382813 -40.0703125 45.26171875 C-39.68044537 39.66776811 -38.67267705 37.12903098 -34.625 33.265625 C-33.71234375 32.37681641 -32.7996875 31.48800781 -31.859375 30.57226562 C-30.88866139 29.65557122 -29.91730331 28.7395588 -28.9453125 27.82421875 C-27.06544868 26.01536627 -25.18780279 24.20420564 -23.3125 22.390625 C-22.41184814 21.52179688 -21.51119629 20.65296875 -20.58325195 19.7578125 C-17.2180215 16.41514115 -14.11414115 12.89620972 -11.0703125 9.26171875 C-3.67430208 0.46448724 -3.67430208 0.46448724 0 0 Z " transform="translate(1288.0703125,101.73828125)"/>
<path d="M0 0 C0 16.17 0 32.34 0 49 C-18.42573938 58.21286969 -18.42573938 58.21286969 -25.18359375 61.28125 C-26.31136986 61.79697571 -26.31136986 61.79697571 -27.46192932 62.32312012 C-29.00923214 63.02993434 -30.55715259 63.73539819 -32.10571289 64.43945312 C-34.48949619 65.52364898 -36.87082352 66.61311506 -39.25195312 67.703125 C-40.77069512 68.39613631 -42.28956999 69.08885652 -43.80859375 69.78125 C-44.51882187 70.10613403 -45.22904999 70.43101807 -45.96080017 70.76574707 C-50.88438494 73 -50.88438494 73 -52 73 C-52 56.5 -52 40 -52 23 C-45.39840431 19.69920215 -38.84143941 16.52414335 -32.08984375 13.57421875 C-30.74956871 12.98553764 -30.74956871 12.98553764 -29.38221741 12.38496399 C-27.51650182 11.56619951 -25.65023965 10.74867943 -23.78344727 9.93237305 C-20.91208473 8.67638286 -18.04285418 7.41561378 -15.17382812 6.15429688 C-13.35428972 5.35649012 -11.53463264 4.55895398 -9.71484375 3.76171875 C-8.85455063 3.38367599 -7.99425751 3.00563324 -7.1078949 2.61613464 C-6.31939651 2.27189957 -5.53089813 1.92766449 -4.71850586 1.57299805 C-4.02252792 1.268311 -3.32654999 0.96362396 -2.60948181 0.64970398 C-1 0 -1 0 0 0 Z " transform="translate(1321,11)"/>
</svg>
