<?xml version="1.0" standalone="no"?>
<!DOCTYPE svg PUBLIC "-//W3C//DTD SVG 20010904//EN"
 "http://www.w3.org/TR/2001/REC-SVG-20010904/DTD/svg10.dtd">
<svg version="1.0" xmlns="http://www.w3.org/2000/svg"
 width="300.000000pt" height="147.000000pt" viewBox="0 0 300.000000 147.000000"
 preserveAspectRatio="xMidYMid meet">
<metadata>
Created by potrace 1.10, written by Peter Selinger 2001-2011
</metadata>
<g transform="translate(0.000000,147.000000) scale(0.100000,-0.100000)"
fill="#000000" stroke="none">
<path d="M240 1445 c-19 -7 -59 -27 -89 -44 -30 -18 -72 -39 -93 -48 -21 -8
-38 -17 -38 -19 0 -3 9 -17 21 -33 19 -26 20 -39 17 -189 -3 -144 -5 -163 -24
-189 -11 -15 -19 -32 -17 -38 2 -6 66 -10 168 -9 189 0 196 3 248 88 39 63 24
82 -30 37 -41 -34 -87 -40 -153 -21 -32 9 -64 5 -114 -16 -17 -6 -16 -3 5 25
23 31 24 42 29 214 l5 182 35 -3 c51 -6 91 -30 103 -63 8 -21 16 -27 27 -23 8
4 31 13 50 20 38 14 39 23 9 65 -43 61 -102 85 -159 64z m100 -60 c21 -25 1
-31 -22 -7 -18 18 -19 22 -6 22 8 0 21 -7 28 -15z m-210 -179 c0 -126 -6 -186
-20 -186 -8 0 -19 288 -12 303 2 4 10 7 18 7 11 0 14 -23 14 -124z m0 -277 c0
-5 -9 -9 -20 -9 -19 0 -27 20 -13 33 7 8 33 -11 33 -24z m140 1 c20 -6 14 -8
-27 -9 -29 -1 -53 3 -53 9 0 12 44 12 80 0z"/>
<path d="M2487 1422 c-36 -16 -39 -20 -42 -65 -1 -26 -1 -47 1 -47 2 0 24 10
49 22 43 21 45 24 45 65 0 24 -3 43 -7 43 -5 0 -25 -8 -46 -18z"/>
<path d="M514 1200 c0 -36 -4 -95 -8 -131 -11 -85 13 -148 69 -176 l36 -19 66
33 66 33 18 -30 c10 -16 25 -30 33 -30 7 0 33 17 57 39 41 36 42 39 21 45 -21
7 -22 11 -22 152 l0 144 -50 0 -50 0 0 -139 0 -139 -32 -11 c-44 -15 -96 -4
-115 26 -15 22 -14 31 6 123 29 126 26 137 -42 142 l-52 3 -1 -65z m51 -75
c-14 -47 -14 -48 -10 -10 9 68 19 103 22 80 2 -11 -4 -42 -12 -70z m250 -157
c6 -24 4 -28 -13 -28 -23 0 -34 21 -21 41 5 8 9 61 10 119 l2 105 7 -105 c4
-58 10 -117 15 -132z m-209 -35 c-9 -9 -35 11 -45 35 l-13 27 31 -29 c17 -16
29 -31 27 -33z"/>
<path d="M1115 1244 c-49 -29 -55 -29 -55 -4 0 19 -4 19 -62 -11 -35 -17 -64
-33 -66 -34 -2 -2 6 -13 17 -24 20 -20 21 -32 21 -231 l0 -210 45 0 45 0 0
107 c0 104 1 107 17 83 21 -31 44 -49 62 -50 27 0 110 71 130 113 43 89 17
201 -60 256 -23 17 -45 31 -48 30 -3 0 -24 -12 -46 -25z m124 -114 c8 -29 8
-32 -2 -16 -7 10 -22 34 -34 53 -30 45 -29 54 2 22 14 -13 29 -40 34 -59z
m-86 31 c45 -49 62 -110 51 -171 -9 -44 -10 -45 -44 -42 -23 2 -45 13 -65 32
-28 29 -30 36 -33 119 -4 87 -3 89 20 94 12 2 26 5 29 6 4 0 23 -17 42 -38z
m-113 -177 c12 -28 11 -34 -8 -58 l-21 -27 -3 138 c-3 160 4 199 13 68 4 -49
12 -104 19 -121z"/>
<path d="M1364 1200 c0 -36 -4 -95 -8 -131 -11 -86 13 -148 69 -177 l37 -19
66 35 c45 25 67 32 70 23 2 -7 14 -23 26 -37 l21 -24 49 42 c45 39 47 42 27
50 -20 7 -21 14 -21 153 l0 145 -50 0 -50 0 0 -139 0 -139 -35 -12 c-46 -15
-92 -4 -112 26 -15 23 -15 32 6 120 12 52 19 105 15 118 -5 21 -13 25 -57 28
l-52 3 -1 -65z m51 -75 l-14 -50 6 60 c6 63 16 93 20 60 2 -11 -4 -42 -12 -70z
m250 -163 c7 -21 5 -23 -16 -20 -18 2 -23 8 -20 23 2 11 6 70 9 130 l6 110 7
-110 c4 -60 10 -121 14 -133z m-215 -30 c-15 -5 -37 15 -43 40 -5 18 -2 17 24
-8 17 -16 25 -30 19 -32z"/>
<path d="M1903 1235 c-108 -53 -134 -100 -97 -177 l15 -33 89 0 c74 0 91 -3
110 -20 50 -45 45 -95 -9 -95 -36 1 -107 34 -122 58 -12 19 -13 19 -55 -2 -24
-11 -43 -24 -44 -28 0 -10 100 -57 137 -64 42 -8 126 20 169 58 38 33 43 62
22 130 -9 30 -15 37 -27 32 -9 -4 -50 -9 -91 -12 -66 -3 -78 -1 -102 18 -35
27 -39 83 -8 100 27 15 95 -4 126 -35 18 -18 25 -21 34 -10 6 7 24 18 41 25
28 12 29 13 10 26 -20 14 -116 64 -122 64 -2 0 -36 -16 -76 -35z"/>
<path d="M2436 1231 c-37 -38 -38 -39 -17 -50 20 -11 21 -20 21 -131 l0 -118
39 -31 39 -31 36 21 c42 25 44 31 14 44 -22 10 -23 17 -28 151 -4 121 -8 145
-24 163 -26 29 -36 27 -80 -18z m60 -152 l1 -124 -8 100 c-4 55 -10 113 -15
129 -5 22 -4 28 7 24 11 -4 14 -32 15 -129z"/>
<path d="M2671 1229 c-44 -40 -44 -40 -23 -55 21 -14 22 -23 22 -155 l0 -139
50 0 50 0 0 140 0 140 26 11 c19 6 37 6 61 -2 60 -19 67 -65 29 -181 -13 -40
-27 -81 -31 -91 -7 -16 -2 -18 56 -15 l64 3 8 50 c4 28 8 91 9 140 2 104 -10
138 -60 171 l-33 23 -48 -25 c-55 -27 -86 -31 -94 -10 -3 8 -14 19 -24 24 -14
8 -27 2 -62 -29z m67 -32 c7 -8 6 -19 -3 -37 -9 -15 -15 -61 -16 -120 l-2 -95
-7 125 c-4 69 -5 128 -3 133 6 11 19 9 31 -6z m189 1 c6 -7 23 -36 39 -65 27
-49 27 -53 11 -71 -9 -10 -21 -42 -27 -72 -11 -56 -16 -67 -26 -57 -3 3 1 34
10 69 24 97 21 131 -15 173 -21 24 -26 35 -16 35 8 0 19 -6 24 -12z"/>
<path d="M560 664 c-128 -81 -124 -78 -112 -100 5 -11 13 -38 17 -61 l7 -43
-36 0 c-32 0 -36 -3 -36 -25 0 -22 4 -25 36 -25 l37 0 -5 -162 c-4 -129 -8
-170 -22 -196 -28 -53 -9 -51 44 4 62 65 80 123 80 256 l0 98 40 0 c30 0 47
-7 65 -24 l24 -24 28 56 c15 31 29 61 31 65 4 8 -101 2 -162 -10 l-28 -5 4 66
c3 55 8 71 30 93 l26 26 17 -39 c9 -21 25 -49 37 -61 l20 -22 49 32 c54 35 58
43 30 52 -24 7 -89 73 -97 97 -3 10 -8 18 -12 18 -4 0 -54 -30 -112 -66z m-30
-119 c0 -26 7 -60 16 -76 14 -28 14 -33 0 -54 -11 -17 -16 -49 -16 -107 0 -46
-4 -90 -9 -97 -10 -16 -21 131 -22 312 0 26 3 52 6 57 14 23 25 7 25 -35z"/>
<path d="M1245 694 c-33 -18 -64 -35 -69 -37 -6 -2 0 -13 12 -25 21 -21 22
-30 22 -212 0 -168 2 -190 16 -190 25 0 93 -41 109 -67 20 -30 42 -29 91 3 48
31 81 77 100 140 33 112 0 200 -85 224 -32 9 -38 7 -66 -19 -16 -16 -40 -34
-53 -41 l-24 -12 4 136 c2 75 3 136 3 135 0 0 -27 -16 -60 -35z m15 -138 c0
-47 5 -88 10 -91 7 -4 7 -12 0 -25 -15 -28 -12 -107 6 -141 17 -34 11 -51 -11
-28 -11 11 -15 55 -17 192 -2 97 0 177 5 177 4 0 7 -38 7 -84z m204 -87 c14
-11 26 -30 26 -41 0 -18 -4 -17 -40 12 -22 17 -40 36 -40 41 0 16 26 10 54
-12z m-27 -71 c35 -36 51 -87 39 -132 -6 -23 -12 -26 -49 -26 -83 0 -127 52
-127 151 0 47 7 52 59 46 32 -4 52 -13 78 -39z"/>
<path d="M2086 686 c-61 -35 -67 -40 -48 -47 22 -8 22 -12 22 -222 l0 -215 36
-27 c24 -18 42 -25 57 -21 29 8 65 37 52 42 -40 16 -40 15 -45 277 l-5 253
-69 -40z m32 -253 c-2 -232 -6 -215 -10 40 -2 92 0 167 5 167 4 0 6 -93 5
-207z"/>
<path d="M905 508 c-16 -17 -47 -39 -68 -49 -71 -37 -15 -54 62 -19 24 11 45
20 46 20 12 0 35 -35 35 -54 0 -20 -11 -27 -75 -51 -89 -32 -115 -59 -115
-120 0 -32 6 -48 26 -69 34 -34 59 -33 118 4 l48 31 33 -26 c41 -30 41 -30 85
-4 l34 21 -27 14 c-27 15 -27 15 -27 128 l0 112 -70 47 c-39 26 -72 46 -73 46
-1 -1 -15 -15 -32 -31z m135 -199 c0 -55 -4 -98 -9 -95 -10 6 -21 157 -14 186
12 46 23 2 23 -91z m-60 -19 c0 -50 -3 -61 -21 -70 -50 -27 -92 15 -69 70 10
24 58 59 83 60 4 0 7 -27 7 -60z"/>
<path d="M1612 515 c9 -19 8 -44 -2 -109 -22 -142 -4 -210 65 -243 33 -16 35
-16 93 15 66 35 82 39 82 19 0 -15 31 -47 46 -47 5 0 26 17 47 36 l39 36 -21
19 c-19 18 -21 31 -21 159 l0 140 -48 0 -49 0 5 -137 c5 -155 2 -163 -73 -163
-83 0 -100 36 -69 152 8 33 14 79 12 101 l-3 42 -58 3 -57 3 12 -26z m299
-285 c2 -10 -3 -15 -16 -15 -16 0 -19 5 -16 25 2 14 6 72 9 130 l6 105 6 -115
c3 -63 8 -122 11 -130z m-226 0 c32 -33 17 -42 -15 -10 -17 17 -27 40 -17 40
2 0 16 -13 32 -30z"/>
<path d="M2404 519 c-10 -12 -43 -35 -72 -51 -41 -24 -50 -33 -42 -43 12 -14
42 -7 112 25 35 16 58 0 58 -39 0 -24 -8 -30 -80 -60 -87 -35 -110 -61 -110
-121 0 -36 47 -90 77 -90 11 0 41 14 67 31 l48 30 39 -27 39 -27 35 19 c33 18
46 34 26 34 -5 0 -17 7 -25 16 -13 12 -16 39 -16 127 l0 112 -48 27 c-26 15
-56 35 -68 43 -19 14 -22 13 -40 -6z m116 -206 c0 -111 -15 -116 -22 -7 -5 62
3 104 17 104 3 0 5 -44 5 -97z m-60 -27 c0 -64 0 -64 -31 -71 -45 -10 -75 21
-62 61 9 26 63 74 84 74 5 0 9 -29 9 -64z"/>
</g>
</svg>
