<svg xmlns="http://www.w3.org/2000/svg" width="43" height="40" viewBox="0 0 42 40"><path style="stroke:none;fill-rule:nonzero;fill:#900;fill-opacity:1" d="M25.504-.012c.914.012 1.8.399 2.617.797.043.024.09.043.137.067.379.187.738.402 1.094.632l.156.098c.668.43 1.285.914 1.875 1.45q.165.148.336.292c.367.313.71.645 1.047.989q.13.136.257.265c.368.375.715.754 1.036 1.172q.199.256.421.5c.473.531.54 1.09.512 1.781-.043.602-.312 1.16-.668 1.637-.11.164-.144.23-.11.422.063.078.063.078.255.078.355-.008.625-.195.875-.441.199-.227.386-.47.511-.747.051-.09.051-.09.204-.195h.203c.476 1.078.629 2.16.222 3.293a5 5 0 0 1-1.261 1.774l-.149.136q-.232.212-.476.407c-.098.113-.11.207-.125.351.425.18.816.113 1.242-.031q.064-.018.129-.043a3.44 3.44 0 0 0 2.031-1.805c.281-.605.43-1.168.527-1.828.04-.234.082-.437.22-.633.16-.047.16-.047.304-.054l.222.414q.078.147.16.289c.368.62.63 1.41.633 2.14.004.14.004.14.063.282.055.187.062.34.062.535v1.035a1.3 1.3 0 0 1-.113.43c-.012.097-.02.199-.023.296a2.3 2.3 0 0 1-.114.61c-.07.23-.101.375-.02.61.106.132.22.253.337.378.215.25.37.535.535.824q.042.063.078.125c.578.899.805 1.973.977 3.012q.01.081.027.156l.023.145c.02.125.02.125.075.277q.006.218.007.434-.001.063.004.133v.273q-.001.208.004.418c0 .469-.023.898-.133 1.355a5 5 0 0 0-.105.723c-.031.262-.031.262-.086.375a6 6 0 0 0-.02.258 3.4 3.4 0 0 1-.144.746q-.062.224-.113.45a18 18 0 0 1-.645 1.995c-.137-.015-.27-.03-.41-.05-.016-.043-.027-.09-.043-.133-.137-.39-.277-.68-.57-.965-.051.015-.102.035-.157.05-.042.13-.078.25-.105.38-.016.058-.016.058-.027.117a3.7 3.7 0 0 0-.098.683c-.02.391-.121.75-.23 1.121-.024.09-.024.09-.051.18a14.9 14.9 0 0 1-2.406 4.79l-.083.109q-.138.182-.277.359l-.097.133c-.458.593-.985 1.156-1.59 1.593q-.088.063-.168.126c-.848.636-1.914 1.335-3.008 1.289-.07-.23-.031-.344.066-.559.227-.566.246-1.188.239-1.797q-.076-.026-.153-.05c-.265.171-.472.429-.676.671-.27.317-.546.594-.898.82a8 8 0 0 0-.367.258c-.473.34-.98.575-1.512.793l-.18.07a11.6 11.6 0 0 1-2.586.739l-.226.039c-.035.008-.07.012-.11.02-.03.003-.062.011-.093.015-.121.024-.121.024-.278.078a2.3 2.3 0 0 1-.566.067h-1.215q-.324-.001-.648.004h-.746a5.5 5.5 0 0 1-1.473-.176c-.09-.02-.18-.035-.266-.055-.824-.168-1.597-.398-2.347-.781l-.106-.055a9 9 0 0 1-1.586-1.043l-.129-.105c-.718-.575-.718-.575-.843-.89.011-.142.011-.142.05-.263.153-.074.301-.078.47-.101.41-.051.41-.051.812-.16.086-.024.086-.024.172-.055.496-.168.828-.426 1.187-.809.066-.07.137-.136.207-.207.32-.336.504-.699.688-1.125.027-.054.05-.113.078-.168.12-.289.097-.597.097-.906q-.001-.167.004-.332a3.47 3.47 0 0 0-.898-2.348c-.04-.039-.078-.082-.117-.12-.086-.098-.086-.098-.086-.204l-.098-.047c-.11-.058-.11-.058-.21-.16-.165.008-.235.027-.345.149q-.04.063-.082.125c-.16.226-.332.418-.597.507-.14-.02-.14-.02-.258-.05l.008-.188c.015-.808-.09-1.332-.653-1.941l-.172-.172c-.02-.05-.035-.102-.054-.156a3 3 0 0 0-.254-.106 5 5 0 0 1-.328-.226c-.664-.43-1.406-.575-2.18-.606l-.156-.008c-.52-.015-1.082 0-1.485.371-.199.22-.375.442-.46.73.007.153.027.294.05.442 0 .133 0 .133-.058.219-.207.156-.516.102-.762.102-.09.003-.09.003-.184.003-.511.004-.843-.144-1.246-.464a2.6 2.6 0 0 1-.515-.77c-.11-.14-.207-.187-.375-.234l-.125-.035q-.136-.04-.266-.075c-.273-.082-.434-.16-.617-.39q-.053-.052-.102-.106c-.008-.136-.008-.136 0-.261.184-.07.36-.11.555-.137.605-.106 1.16-.5 1.684-.809q.362-.215.73-.414c.055-.027.105-.055.164-.086 1.754-.926 3.555-1.172 5.5-.87q.148.022.3.034c.974.114 2.009.528 2.849 1.032.152.074.289.09.457.101-.063-.77-.536-1.394-1.079-1.902-.41-.348-.93-.555-1.43-.711l-.132-.047c-.352-.113-.688-.137-1.055-.148-.195-.016-.195-.016-.375-.067a1.9 1.9 0 0 0-.59-.066h-.105a2.1 2.1 0 0 0-.664.117c-.098.02-.2.031-.3.047a6.6 6.6 0 0 0-1.798.527q-.158.07-.312.133c-.23.098-.45.2-.668.316q-.172.089-.344.172a13 13 0 0 0-1.016.559c-.62.39-1.289.687-1.964.965-.036.015-.07.035-.11.05-.465.196-1.113.192-1.582-.003-.047-.024-.047-.024-.098-.047q-.122-.037-.238-.075c-.433-.148-.785-.43-1.144-.71a4 4 0 0 1-.149-.11q-.051-.048-.11-.098v-.105l-.089-.04c-.219-.124-.363-.339-.523-.534l-.106-.125a5.4 5.4 0 0 1-.578-.875c-.078-.137-.16-.266-.242-.399-.153-.254-.242-.52-.34-.8a2.5 2.5 0 0 0-.3-.602c-.224-.332-.325-.688-.434-1.07a2 2 0 0 0-.04-.13c-.054-.202-.093-.394-.062-.6.363-.446.844-.606 1.383-.731l.101-.055q.246-.04.496-.074c.168-.024.168-.024.325-.086.172-.055.328-.067.507-.074.258-.016.477-.051.723-.133l.27-.04c.316-.05.617-.136.922-.226.23-.066.457-.125.691-.176.434-.101.883-.222 1.242-.5.117-.05.238-.105.356-.156q.175-.083.343-.172c.063-.03.125-.066.192-.097l.094-.047.246-.13q.369-.18.726-.39c.57-.343 1.07-.535 1.727-.62.297-.04.582-.087.87-.161l.188-.047c.516-.18.856-.644 1.09-1.129q.024-.06.055-.125c.055-.12.129-.215.207-.324q.07-.118.133-.242a25 25 0 0 1 .488-.899 2.67 2.67 0 0 1 1.04-1.054c.07-.04.07-.04.136-.082.324-.192.652-.364.988-.532.281-.14.559-.289.836-.433.434-.23.867-.461 1.309-.684.277-.14.55-.289.824-.433q.575-.315 1.168-.594.406-.194.804-.399c.036-.015.067-.035.102-.05.09-.047.176-.094.266-.137.043-.024.09-.043.136-.066.18-.141.262-.293.325-.512.023-.254.023-.508.02-.766V6.66c-.005-.414-.005-.414-.126-.805q-.007-.152-.008-.304c-.035-.582-.226-1.13-.398-1.68-.016-.043-.027-.086-.043-.133a9.4 9.4 0 0 0-.621-1.488c-.059-.11-.113-.223-.172-.336a10 10 0 0 0-.645-1.121c-.058-.113-.058-.113-.043-.23.036-.094.036-.094.086-.145.641-.074 1.22.36 1.75.676.086.05.176.105.266.156.547.316 1.04.691 1.535 1.086q.134.107.274.215c.351.277.699.554.992.898q.063.082.133.156c.168.247.156.477.152.766v.16c0 .114-.004.223-.004.336q-.005.252-.004.504.001.165-.004.328v.153a4 4 0 0 1-.097.832c-.036.175-.04.343-.04.527v.195c.02.184.043.258.172.383.133.02.133.02.254 0q.022-.054.043-.113c.059-.145.059-.145.13-.254.331-.602.48-1.305.526-1.984.02-.208.02-.208.07-.399.083-.316.067-.637.067-.96V3.87a5.6 5.6 0 0 0-.133-1.219 5 5 0 0 1-.066-.816 2 2 0 0 0-.125-.633q-.017-.15-.027-.3c-.012-.2-.012-.2-.075-.38a5 5 0 0 1-.007-.238V.156c.015-.222.18-.164.363-.168m1.797 4.04a.6.6 0 0 0-.012.23v.12c.008.118.008.118.035.22.219.914-.215 2.02-.484 2.879-.031.093-.031.093-.059.187-.129.406-.285.797-.445 1.191q-.315.797-.59 1.61l-.07.191a6 6 0 0 0-.27 1.055h-.258l-.015-.188c-.04-.671-.04-.671-.293-1.273a1.3 1.3 0 0 0-.406-.21q-.075-.027-.157-.052-.111-.017-.222-.027l-.133-.012-.277-.023a3.5 3.5 0 0 1-.598-.098c-.23-.066-.453-.066-.692-.062q-.064.001-.128-.004a2.5 2.5 0 0 0-.715.12c-.25.032-.5.048-.75.063-.262.02-.489.051-.735.145a7 7 0 0 1-.297.055q-.281.044-.562.101l-.098.02a5 5 0 0 0-.422.148q-.145.06-.296.113c-.782.29-1.504.618-2.168 1.133l-.145.113c-.555.45-1.039.926-1.39 1.559l-.13.223c-.457.78-.457.78-.585 1.66.046.11.046.11.152.156.32-.012.547-.137.82-.297q.06-.03.117-.066c.23-.133.43-.274.625-.453.118-.11.25-.192.383-.282.11-.082.207-.168.309-.261v-.102l.09-.047c.37-.195.675-.508.984-.793.242-.218.484-.43.742-.629q.141-.11.282-.226c1.046-.856 1.046-.856 1.59-.817-.048.309-.048.309-.102.368-.016.152-.016.152 0 .312.09.113.09.113.203.117h.238c.14-.015.246-.062.375-.117q.167-.032.332-.05a3.7 3.7 0 0 0 .645-.157c.218-.027.37-.027.562.102.028.16.028.16.035.355 0 .055 0 .055.004.11l.012.32.004.168q.004.256-.004.511v.122c-.008.617-.07 1.136-.309 1.71l-.058.145a3.5 3.5 0 0 1-.469.738c-.078.098-.14.196-.207.301-.156.227-.371.348-.598.488q-.139.094-.285.188c-.601.39-1.238.672-1.96.687a2.7 2.7 0 0 0-.462.094c-.23.05-.468.043-.703.043-.191.008-.297.012-.457.125-.09.14-.097.219-.09.387q-.001.066.004.137c.004.12.004.12.063.222q.017.136.027.266l.016.144c0 .04.004.075.008.114a1.3 1.3 0 0 1-.497-.317l-.136-.129-.258-.25c-.742-.703-1.582-1.246-2.594-1.398-.12.016-.12.016-.203.055-.059.18-.059.246.024.421l.078.153v.207c-.258.012-.426.004-.664-.102-.278-.074-.559-.125-.84-.18q-.165-.036-.328-.085a3.6 3.6 0 0 0-.68-.086l-.129-.004c-.582-.024-1.121.008-1.68.191a9 9 0 0 1-.449.13c-.332.093-.656.202-.984.316a22 22 0 0 1-1.285.41c-.114.035-.215.07-.325.12-.168.079-.336.13-.515.184-.258.078-.52.164-.778.246q-.385.13-.777.23c-.125.06-.176.134-.246.25-.05.153-.055.259-.063.419-.054.61-.406 1.047-.793 1.484-.14.164-.199.278-.195.5.063.254.27.442.438.633l.113.137c.379.441.762.789 1.27 1.066q.053.03.105.067c.559.289 1.309.218 1.887.027q.314-.118.617-.254c.035-.012.066-.027.101-.043.192-.082.38-.176.567-.27l.16-.078c.23-.113.453-.23.664-.378.59-.418 1.25-.743 1.895-1.063q.144-.072.289-.148c.828-.41 1.664-.653 2.586-.641h.171c1.446.016 2.957.281 4.098 1.273.121.114.121.114.3.098.22-.066.294-.14.438-.316.024-.028.043-.055.067-.082.191-.246.27-.504.344-.809.503.133.75.656 1.003 1.086.399.723.739 1.52.774 2.36.008.113.008.113.066.222.063.188.067.36.063.555l.004.117q.001.124-.004.242-.001.189.004.371.001.119-.004.238.005.056.004.11c-.004.21-.032.367-.117.558q-.03.17-.051.34c-.051.403-.133.79-.258 1.176-.238.04-.363-.027-.559-.156-.234-.153-.39-.211-.672-.211-.12.043-.12.043-.203.105.028.239.078.38.215.575.215.328.352.675.488 1.043l.075.187c.195.516.34 1.027.406 1.574.023.227.023.227.098.438.054.86-.086 1.62-.41 2.414a2 2 0 0 0-.102.566c.074.094.074.094.203.156.383-.039.664-.25.973-.468.035-.028.074-.051.109-.078a8 8 0 0 0 1.07-.97l.106-.112c.281-.305.5-.625.715-.985l.058-.094a6 6 0 0 0 .403-.777c.02-.039.035-.078.054-.121.254-.586.254-.586.352-1.203.148-.004.23-.004.36.05.093.114.167.227.237.356a.9.9 0 0 0 .223.274c.106-.004.106-.004.207-.055.055-.113.055-.113.086-.254.024-.078.024-.078.043-.16l.043-.172c.262-.961.645-1.77 1.262-2.55q.165-.235.324-.47c.105-.152.215-.289.34-.418a3 3 0 0 0 .125-.23c.066-.133.133-.242.226-.356.153-.203.266-.425.38-.656l.07-.137c.125-.214.125-.214.171-.453l.41-.105.036.133.039.175c.02.086.02.086.043.172a.65.65 0 0 0 .09.254l.02.278c.015.222.042.375.183.558.203.008.308-.012.469-.144.726-.778 1.16-1.918 1.425-2.942q.025-.073.043-.148c.262-1.004.223-2.043.168-3.07l-.004-.23q.14-.008.285-.009l.16-.004c.169.012.169.012.333.063.207.055.402.07.613.078l.117.004q.128.001.25.008c.121 0 .246.008.371.011.43.012.832.004 1.25-.101l.172-.04c.871-.218 1.594-.566 2.238-1.214q.082-.083.168-.164c.328-.32.59-.625.805-1.04q.06-.099.125-.198c.352-.575.719-1.309.64-1.997-.054-.101-.054-.101-.152-.156-.242.004-.445.149-.648.27a6.2 6.2 0 0 1-1.281.527c-.078.027-.157.05-.235.078-.312.106-.597.14-.93.145q-.07-.001-.148.004h-.308q-.235.001-.47.008c-1.155.011-2.128-.391-2.972-1.208-.535-.582-.535-.582-.59-.976.063 0 .121-.004.184-.004.851-.027 1.617-.156 2.379-.57q.064-.036.129-.067c.265-.144.504-.32.742-.508l.152-.12q.053-.044.102-.09v-.106h.105v-.105q.076-.023.153-.051c.097-.133.097-.133.187-.297l.094-.164c.082-.172.129-.29.129-.48-.082-.16-.082-.16-.258-.262-.191-.028-.383-.02-.578-.016-.653-.004-1.188-.164-1.793-.398a19 19 0 0 0-.703-.262 21 21 0 0 0-.75-.254l-.102-.035c-.375-.117-.715-.14-1.105-.14h-.137c-.312 0-.617.023-.926.062-.047-.157-.058-.242-.004-.395l.07-.133.07-.132q.037-.063.067-.125.031-.06.055-.118c.066-.12.133-.14.254-.199l.09-.094a2.57 2.57 0 0 1 1.406-.683c.195-.031.281-.043.441-.172.079-.191.059-.316.008-.512l-.023-.136c-.215-1.012-.797-2.153-1.563-2.844-.039-.043-.082-.086-.12-.13-.657-.66-.657-.66-1.5-.987-.15.02-.184.054-.274.175M18.695 14.43l-.175.07c-.36.172-.68.375-.899.715-.031.14-.031.14 0 .262.242.25.656.168.977.171h.183c.414.004.817-.011 1.164-.257l.082-.094.082-.09c.125-.168.188-.305.192-.516.004-.05.004-.05.004-.101-.035-.164-.09-.219-.227-.317a2.4 2.4 0 0 0-.473-.023h-.128a1.9 1.9 0 0 0-.782.18M38.11 19.5l-.058.09q-.062.083-.125.164a1 1 0 0 0-.063.082c-.36.484-.797.785-1.3 1.09a1.4 1.4 0 0 0-.301.25c.066.207.125.297.304.41q.286.18.555.383a7 7 0 0 1 .523.41c.032.027.063.05.098.078.309.262.559.574.817.89.097.122.199.235.3.352.082.113.149.235.22.36.05.097.108.191.163.289.235.414.43.816.586 1.265a.95.95 0 0 0 .277.375c.176-.074.243-.136.317-.312.137-.375.121-.762.117-1.153-.004-.132 0-.261 0-.39 0-.438-.027-.817-.18-1.23q-.036-.173-.066-.344a7.2 7.2 0 0 0-1.266-2.848l-.093-.133c-.032-.039-.059-.078-.09-.117-.04-.05-.04-.05-.074-.098-.258-.18-.48-.093-.66.137m-3.894 3.871c-.082.254-.004.453.074.695.25.86.176 1.641-.23 2.446a4.1 4.1 0 0 1-.75.988c-.079.105-.079.105-.067.246.07.242.156.477.246.711.188.512.32 1.02.418 1.555l.035.164c.07.363.106.722.121 1.094 0 .043.004.09.004.136.036 1.13-.02 2.305-.55 3.32-.082.18-.067.274-.02.465.094.04.094.04.207.051 1.563-.847 2.469-3.18 2.961-4.797.363-1.246.547-2.652.266-3.933-.012-.067-.012-.067-.028-.133-.187-.754-.672-1.43-1.152-2.012l-.094-.12a3.6 3.6 0 0 0-.672-.614c-.074-.059-.074-.059-.144-.121-.203-.157-.38-.145-.625-.14m-3.48 3.86a1.8 1.8 0 0 0-.2.433 3.7 3.7 0 0 1-.558 1.055c-.075.086-.075.086-.063.195-.05.02-.102.035-.156.055-.086.078-.086.078-.164.18q-.042.045-.082.097c-.07.082-.07.082-.059.192l-.101.042c-.122.055-.122.055-.157.22l-.203.105c-.097.093-.097.093-.183.207l-.176.21q-.04.048-.074.094c-.082.063-.082.063-.188.059-.098-.047-.098-.047-.18-.23a4 4 0 0 1-.117-.465c-.062-.313-.191-.64-.414-.871-.133-.008-.133-.008-.258 0a9 9 0 0 0-.328.73 3.8 3.8 0 0 1-.441.79c-.54.812-.867 1.632-1.153 2.566q-.018.053-.03.105l-.09.285a5 5 0 0 1-.212.543q-.029.105-.05.211c-.172-.027-.172-.027-.36-.105-.066-.184-.066-.184-.101-.364-.051-.054-.051-.054-.102-.105-.133.015-.133.015-.258.05-.011.051-.027.102-.039.153-.207.758-.531 1.445-1.035 2.043q-.057.075-.113.144a3.9 3.9 0 0 1-.852.848l-.152.11-.145.101c-.132.113-.175.2-.222.367.226.235.457.266.765.313l.168.035c.91.09 1.84-.012 2.703-.313q.146-.051.286-.097c.675-.227 1.277-.582 1.863-.985l.09-.058c.093-.063.187-.13.277-.192a4 4 0 0 0 .3-.219v-.105l.09-.039c.13-.074.22-.16.325-.266q.058-.058.117-.12l.121-.126.121-.12.117-.122q.053-.051.106-.11c.09-.085.09-.085.078-.194h.102a6 6 0 0 0 .168-.266c.105-.176.21-.34.347-.492.164-.188.27-.39.383-.614q.105-.196.227-.382c.226-.383.367-.809.515-1.227l.063-.176a4.5 4.5 0 0 0 .222-.996c.024-.137.024-.137.075-.238.105-.832.261-2.266-.258-2.961-.149-.11-.223-.106-.356.02m0 0"/></svg>